<?xml version="1.0" encoding="UTF-8" standalone="no"?>
<!-- Created with Inkscape (http://www.inkscape.org/) -->

<svg
   width="210mm"
   height="297mm"
   viewBox="0 0 210 297"
   version="1.1"
   id="svg5"
   sodipodi:docname="areal_velocity.svg"
   inkscape:export-filename="areal_velocity.pdf"
   inkscape:export-xdpi="94.947617"
   inkscape:export-ydpi="94.947617"
   inkscape:version="1.2.2 (b0a8486541, 2022-12-01)"
   xmlns:inkscape="http://www.inkscape.org/namespaces/inkscape"
   xmlns:sodipodi="http://sodipodi.sourceforge.net/DTD/sodipodi-0.dtd"
   xmlns="http://www.w3.org/2000/svg"
   xmlns:svg="http://www.w3.org/2000/svg"
   xmlns:ns6="http://wanglongqi.github.io/WriteTeX">
  <sodipodi:namedview
     id="namedview7"
     pagecolor="#ffffff"
     bordercolor="#999999"
     borderopacity="1"
     inkscape:showpageshadow="0"
     inkscape:pageopacity="0"
     inkscape:pagecheckerboard="0"
     inkscape:deskcolor="#d1d1d1"
     inkscape:document-units="mm"
     showgrid="false"
     inkscape:zoom="2.0000001"
     inkscape:cx="183"
     inkscape:cy="183.5"
     inkscape:window-width="1896"
     inkscape:window-height="1185"
     inkscape:window-x="0"
     inkscape:window-y="0"
     inkscape:window-maximized="1"
     inkscape:current-layer="layer1" />
  <defs
     id="defs2">
    <marker
       style="overflow:visible"
       id="Arrow1L"
       refX="0"
       refY="0"
       orient="auto-start-reverse"
       inkscape:stockid="Arrow1L"
       markerWidth="8.75"
       markerHeight="5"
       viewBox="0 0 8.75 5"
       inkscape:isstock="true"
       inkscape:collect="always"
       preserveAspectRatio="xMidYMid">
      <path
         style="fill:context-stroke;fill-rule:evenodd;stroke:none"
         d="M 0,0 5,-5 -12.5,0 5,5 Z"
         id="arrow1L"
         transform="scale(-0.5)" />
    </marker>
    <inkscape:path-effect
       effect="spiro"
       id="path-effect5413"
       is_visible="true"
       lpeversion="1" />
    <inkscape:path-effect
       effect="spiro"
       id="path-effect5409"
       is_visible="true"
       lpeversion="1" />
    <marker
       style="overflow:visible"
       id="Arrow1L-6"
       refX="0"
       refY="0"
       orient="auto-start-reverse"
       inkscape:stockid="Arrow1L"
       markerWidth="8.75"
       markerHeight="5"
       viewBox="0 0 8.75 5"
       inkscape:isstock="true"
       inkscape:collect="always"
       preserveAspectRatio="xMidYMid">
      <path
         style="fill:context-stroke;fill-rule:evenodd;stroke:none"
         d="M 0,0 5,-5 -12.5,0 5,5 Z"
         id="arrow1L-7"
         transform="scale(-0.5)" />
    </marker>
    <inkscape:path-effect
       effect="spiro"
       id="path-effect5413-5"
       is_visible="true"
       lpeversion="1" />
    <marker
       style="overflow:visible"
       id="Arrow1L-6-5"
       refX="0"
       refY="0"
       orient="auto-start-reverse"
       inkscape:stockid="Arrow1L"
       markerWidth="8.75"
       markerHeight="5"
       viewBox="0 0 8.75 5"
       inkscape:isstock="true"
       inkscape:collect="always"
       preserveAspectRatio="xMidYMid">
      <path
         style="fill:context-stroke;fill-rule:evenodd;stroke:none"
         d="M 0,0 5,-5 -12.5,0 5,5 Z"
         id="arrow1L-7-6"
         transform="scale(-0.5)" />
    </marker>
    <inkscape:path-effect
       effect="spiro"
       id="path-effect5413-5-2"
       is_visible="true"
       lpeversion="1" />
    <marker
       style="overflow:visible"
       id="Arrow1L-1"
       refX="0"
       refY="0"
       orient="auto-start-reverse"
       inkscape:stockid="Arrow1L"
       markerWidth="8.75"
       markerHeight="5"
       viewBox="0 0 8.75 5"
       inkscape:isstock="true"
       inkscape:collect="always"
       preserveAspectRatio="xMidYMid">
      <path
         style="fill:context-stroke;fill-rule:evenodd;stroke:none"
         d="M 0,0 5,-5 -12.5,0 5,5 Z"
         id="arrow1L-2"
         transform="scale(-0.5)" />
    </marker>
    <inkscape:path-effect
       effect="spiro"
       id="path-effect5413-7"
       is_visible="true"
       lpeversion="1" />
  </defs>
  <g
     inkscape:label="Layer 1"
     inkscape:groupmode="layer"
     id="layer1">
    <path
       style="fill:#d3ffdb;fill-opacity:0.99697;stroke:#6e6e6e;stroke-width:0.264583;stroke-linecap:round;stroke-linejoin:round;stroke-opacity:1"
       id="path234"
       sodipodi:type="arc"
       sodipodi:cx="68.800385"
       sodipodi:cy="77.93087"
       sodipodi:rx="53.013241"
       sodipodi:ry="31.776482"
       sodipodi:start="5.2708943"
       sodipodi:end="0"
       sodipodi:arc-type="slice"
       d="M 96.89312,50.982885 A 53.013241,31.776482 0 0 1 121.81363,77.93087 H 68.800385 Z" />
    <path
       style="fill:#ffffff;fill-opacity:0.99697;stroke:#6e6e6e;stroke-width:0.264583;stroke-linecap:round;stroke-linejoin:round;stroke-opacity:1"
       id="path234-3"
       sodipodi:type="arc"
       sodipodi:cx="68.800972"
       sodipodi:cy="77.930336"
       sodipodi:rx="53.013241"
       sodipodi:ry="31.776482"
       sodipodi:start="5.6059976"
       sodipodi:end="0"
       sodipodi:arc-type="slice"
       d="m 110.1162,58.019073 a 53.013241,31.776482 0 0 1 11.69801,19.911263 H 68.800972 Z" />
    <path
       style="fill:#d3ffdb;fill-opacity:0.99697;stroke:#333333;stroke-width:0.51408;stroke-linecap:round;stroke-linejoin:round;stroke-dasharray:none;stroke-opacity:1;marker-end:url(#Arrow1L)"
       d="M 69.160004,77.77591 107.28617,59.401287"
       id="path5411"
       inkscape:path-effect="#path-effect5413"
       inkscape:original-d="M 69.160004,77.77591 107.28617,59.401287" />
    <path
       style="fill:#d3ffdb;fill-opacity:0.99697;stroke:#333333;stroke-width:0.51408;stroke-linecap:round;stroke-linejoin:round;stroke-dasharray:none;stroke-opacity:1;marker-end:url(#Arrow1L-1)"
       d="M 97.062434,50.888313 135.1886,32.51369"
       id="path5411-0"
       inkscape:path-effect="#path-effect5413-7"
       inkscape:original-d="M 97.062434,50.888313 135.1886,32.51369" />
    <path
       style="fill:#d3ffdb;fill-opacity:0.99697;stroke:#333333;stroke-width:0.488643;stroke-linecap:round;stroke-linejoin:round;stroke-dasharray:none;stroke-opacity:1;marker-end:url(#Arrow1L-6)"
       d="M 69.152394,77.794931 94.765014,53.08278"
       id="path5411-3"
       inkscape:path-effect="#path-effect5413-5"
       inkscape:original-d="M 69.152394,77.794931 94.765014,53.08278" />
    <path
       style="fill:#d3ffdb;fill-opacity:0.99697;stroke:#333333;stroke-width:0.489252;stroke-linecap:round;stroke-linejoin:round;stroke-dasharray:none;stroke-opacity:1;marker-end:url(#Arrow1L-6-5)"
       d="M 110.24046,57.94028 135.90562,33.217203"
       id="path5411-3-9"
       inkscape:path-effect="#path-effect5413-5-2"
       inkscape:original-d="M 110.24046,57.94028 135.90562,33.217203" />
    <path
       style="fill:#d3ffdb;fill-opacity:0.99697;stroke:#333333;stroke-width:0.1;stroke-linecap:round;stroke-linejoin:round;stroke-dasharray:0.1, 0.3;stroke-dashoffset:0;stroke-opacity:1"
       d="m 96.812594,51.085035 13.290986,7.034946"
       id="path6176" />
    <path
       style="fill:#f5d9d7;fill-opacity:1;stroke:#333333;stroke-width:0.00312499;stroke-linecap:round;stroke-linejoin:round;stroke-dasharray:none;stroke-dashoffset:0;stroke-opacity:1"
       d="m 108.04659,56.968207 c -0.76171,-0.403638 -2.64252,-1.399464 -4.17959,-2.212946 -5.65964,-2.995335 -6.4899,-3.435482 -6.480423,-3.435482 0.01336,0 0.51294,0.195278 0.9407,0.36772 3.136453,1.264375 6.025423,2.71943 8.640313,4.351774 0.73891,0.461267 1.55057,1.000567 2.20088,1.462358 0.27051,0.192092 0.28219,0.200734 0.27132,0.20058 -0.005,-6.6e-5 -0.63149,-0.330367 -1.3932,-0.734004 z"
       id="path8416" />
    <circle
       style="fill:#000000;fill-opacity:0.99697;stroke:#333333;stroke-width:0;stroke-linecap:round;stroke-linejoin:round;stroke-dasharray:none;stroke-dashoffset:0;stroke-opacity:1"
       id="path8522"
       cx="96.911926"
       cy="50.981659"
       r="0.4331328" />
    <circle
       style="fill:#000000;fill-opacity:0.99697;stroke:#333333;stroke-width:0;stroke-linecap:round;stroke-linejoin:round;stroke-dasharray:none;stroke-dashoffset:0;stroke-opacity:1"
       id="path8522-9"
       cx="110.10167"
       cy="58.067642"
       r="0.4331328" />
    <g
       ns6:text="$\mathbf{r}(t+k)$"
       transform="matrix(0.36068246,0,0,0.36068246,21.192555,9.5221211)"
       id="g9717">
      <g
         fill="#000000"
         fill-opacity="1"
         id="g9695">
        <path
           d="m 2.03125,-3.359375 v -1.125 L 0.375,-4.40625 v 0.46875 c 0.609375,0 0.6875,0 0.6875,0.390625 V -0.46875 H 0.375 V 0 c 0.34375,-0.015625 0.796875,-0.03125 1.25,-0.03125 0.375,0 1.015625,0 1.375,0.03125 V -0.46875 H 2.140625 v -1.75 c 0,-0.6875 0.234375,-1.90625 1.234375,-1.90625 0,0.015625 -0.1875,0.171875 -0.1875,0.453125 0,0.40625 0.328125,0.609375 0.609375,0.609375 0.296875,0 0.609375,-0.203125 0.609375,-0.609375 0,-0.53125 -0.53125,-0.8125 -1.0625,-0.8125 -0.6875,0 -1.09375,0.5 -1.3125,1.125 z m 0,0"
           transform="translate(178.585,110.99)"
           id="path9693" />
      </g>
      <g
         fill="#000000"
         fill-opacity="1"
         id="g9699">
        <path
           d="m 3.296875,2.390625 c 0,-0.03125 0,-0.046875 -0.171875,-0.21875 C 1.890625,0.921875 1.5625,-0.96875 1.5625,-2.5 c 0,-1.734375 0.375,-3.46875 1.609375,-4.703125 0.125,-0.125 0.125,-0.140625 0.125,-0.171875 0,-0.078125 -0.03125,-0.109375 -0.09375,-0.109375 -0.109375,0 -1,0.6875 -1.59375,1.953125 -0.5,1.09375 -0.625,2.203125 -0.625,3.03125 0,0.78125 0.109375,1.984375 0.65625,3.125 C 2.25,1.84375 3.09375,2.5 3.203125,2.5 c 0.0625,0 0.09375,-0.03125 0.09375,-0.109375 z m 0,0"
           transform="translate(183.303,110.99)"
           id="path9697" />
      </g>
      <g
         fill="#000000"
         fill-opacity="1"
         id="g9703">
        <path
           d="m 2.046875,-3.984375 h 0.9375 c 0.203125,0 0.3125,0 0.3125,-0.203125 0,-0.109375 -0.109375,-0.109375 -0.28125,-0.109375 h -0.875 C 2.5,-5.71875 2.546875,-5.90625 2.546875,-5.96875 c 0,-0.171875 -0.125,-0.265625 -0.296875,-0.265625 -0.03125,0 -0.3125,0 -0.390625,0.359375 L 1.46875,-4.296875 h -0.9375 c -0.203125,0 -0.296875,0 -0.296875,0.1875 0,0.125 0.078125,0.125 0.28125,0.125 h 0.875 C 0.671875,-1.15625 0.625,-0.984375 0.625,-0.8125 0.625,-0.265625 1,0.109375 1.546875,0.109375 2.5625,0.109375 3.125,-1.34375 3.125,-1.421875 3.125,-1.53125 3.046875,-1.53125 3.015625,-1.53125 2.921875,-1.53125 2.90625,-1.5 2.859375,-1.390625 2.4375,-0.34375 1.90625,-0.109375 1.5625,-0.109375 c -0.203125,0 -0.3125,-0.125 -0.3125,-0.453125 0,-0.25 0.03125,-0.3125 0.0625,-0.484375 z m 0,0"
           transform="translate(187.177,110.99)"
           id="path9701" />
      </g>
      <g
         fill="#000000"
         fill-opacity="1"
         id="g9707">
        <path
           d="m 4.078125,-2.296875 h 2.78125 C 7,-2.296875 7.1875,-2.296875 7.1875,-2.5 7.1875,-2.6875 7,-2.6875 6.859375,-2.6875 h -2.78125 v -2.796875 c 0,-0.140625 0,-0.328125 -0.203125,-0.328125 -0.203125,0 -0.203125,0.1875 -0.203125,0.328125 V -2.6875 h -2.78125 c -0.140625,0 -0.328125,0 -0.328125,0.1875 0,0.203125 0.1875,0.203125 0.328125,0.203125 h 2.78125 V 0.5 c 0,0.140625 0,0.328125 0.203125,0.328125 0.203125,0 0.203125,-0.1875 0.203125,-0.328125 z m 0,0"
           transform="translate(192.989,110.99)"
           id="path9705" />
      </g>
      <g
         fill="#000000"
         fill-opacity="1"
         id="g9711">
        <path
           d="m 2.859375,-6.8125 c 0,0 0,-0.109375 -0.125,-0.109375 -0.234375,0 -0.953125,0.078125 -1.21875,0.109375 -0.078125,0 -0.1875,0.015625 -0.1875,0.1875 0,0.125 0.09375,0.125 0.234375,0.125 0.484375,0 0.5,0.0625 0.5,0.171875 L 2.03125,-6.125 0.59375,-0.390625 c -0.046875,0.140625 -0.046875,0.15625 -0.046875,0.21875 0,0.234375 0.203125,0.28125 0.296875,0.28125 0.125,0 0.265625,-0.09375 0.328125,-0.203125 0.046875,-0.09375 0.5,-1.9375 0.5625,-2.1875 0.34375,0.03125 1.15625,0.1875 1.15625,0.84375 0,0.078125 0,0.109375 -0.03125,0.21875 -0.015625,0.109375 -0.03125,0.234375 -0.03125,0.34375 0,0.578125 0.390625,0.984375 0.90625,0.984375 0.296875,0 0.578125,-0.15625 0.796875,-0.53125 0.25,-0.4375 0.359375,-0.984375 0.359375,-1 0,-0.109375 -0.09375,-0.109375 -0.125,-0.109375 -0.09375,0 -0.109375,0.046875 -0.140625,0.1875 -0.203125,0.71875 -0.421875,1.234375 -0.859375,1.234375 -0.203125,0 -0.328125,-0.109375 -0.328125,-0.46875 0,-0.171875 0.046875,-0.40625 0.078125,-0.5625 C 3.5625,-1.3125 3.5625,-1.34375 3.5625,-1.453125 3.5625,-2.09375 2.9375,-2.375 2.078125,-2.5 2.390625,-2.671875 2.71875,-2.984375 2.9375,-3.234375 3.421875,-3.765625 3.875,-4.1875 4.359375,-4.1875 c 0.0625,0 0.078125,0 0.09375,0.015625 0.125,0.015625 0.125,0.015625 0.21875,0.078125 0.015625,0 0.015625,0.015625 0.03125,0.03125 -0.46875,0.03125 -0.5625,0.421875 -0.5625,0.546875 0,0.15625 0.109375,0.34375 0.375,0.34375 0.265625,0 0.546875,-0.21875 0.546875,-0.609375 0,-0.296875 -0.234375,-0.625 -0.671875,-0.625 -0.28125,0 -0.734375,0.078125 -1.453125,0.875 -0.34375,0.375 -0.734375,0.78125 -1.109375,0.921875 z m 0,0"
           transform="translate(202.951,110.99)"
           id="path9709" />
      </g>
      <g
         fill="#000000"
         fill-opacity="1"
         id="g9715">
        <path
           d="m 2.875,-2.5 c 0,-0.765625 -0.109375,-1.96875 -0.65625,-3.109375 -0.59375,-1.21875 -1.453125,-1.875 -1.546875,-1.875 -0.0625,0 -0.109375,0.046875 -0.109375,0.109375 0,0.03125 0,0.046875 0.1875,0.234375 0.984375,0.984375 1.546875,2.5625 1.546875,4.640625 0,1.71875 -0.359375,3.46875 -1.59375,4.71875 C 0.5625,2.34375 0.5625,2.359375 0.5625,2.390625 0.5625,2.453125 0.609375,2.5 0.671875,2.5 0.765625,2.5 1.671875,1.8125 2.25,0.546875 2.765625,-0.546875 2.875,-1.65625 2.875,-2.5 Z m 0,0"
           transform="translate(208.452,110.99)"
           id="path9713" />
      </g>
    </g>
    <g
       ns6:text="$\mathbf{r}(t)$"
       transform="matrix(0.36317765,0,0,0.36317765,42.648945,23.098528)"
       id="g9852">
      <g
         fill="#000000"
         fill-opacity="1"
         id="g9838">
        <path
           d="m 2.03125,-3.359375 v -1.125 L 0.375,-4.40625 v 0.46875 c 0.609375,0 0.6875,0 0.6875,0.390625 V -0.46875 H 0.375 V 0 c 0.34375,-0.015625 0.796875,-0.03125 1.25,-0.03125 0.375,0 1.015625,0 1.375,0.03125 V -0.46875 H 2.140625 v -1.75 c 0,-0.6875 0.234375,-1.90625 1.234375,-1.90625 0,0.015625 -0.1875,0.171875 -0.1875,0.453125 0,0.40625 0.328125,0.609375 0.609375,0.609375 0.296875,0 0.609375,-0.203125 0.609375,-0.609375 0,-0.53125 -0.53125,-0.8125 -1.0625,-0.8125 -0.6875,0 -1.09375,0.5 -1.3125,1.125 z m 0,0"
           transform="translate(178.585,110.99)"
           id="path9836" />
      </g>
      <g
         fill="#000000"
         fill-opacity="1"
         id="g9842">
        <path
           d="m 3.296875,2.390625 c 0,-0.03125 0,-0.046875 -0.171875,-0.21875 C 1.890625,0.921875 1.5625,-0.96875 1.5625,-2.5 c 0,-1.734375 0.375,-3.46875 1.609375,-4.703125 0.125,-0.125 0.125,-0.140625 0.125,-0.171875 0,-0.078125 -0.03125,-0.109375 -0.09375,-0.109375 -0.109375,0 -1,0.6875 -1.59375,1.953125 -0.5,1.09375 -0.625,2.203125 -0.625,3.03125 0,0.78125 0.109375,1.984375 0.65625,3.125 C 2.25,1.84375 3.09375,2.5 3.203125,2.5 c 0.0625,0 0.09375,-0.03125 0.09375,-0.109375 z m 0,0"
           transform="translate(183.303,110.99)"
           id="path9840" />
      </g>
      <g
         fill="#000000"
         fill-opacity="1"
         id="g9846">
        <path
           d="m 2.046875,-3.984375 h 0.9375 c 0.203125,0 0.3125,0 0.3125,-0.203125 0,-0.109375 -0.109375,-0.109375 -0.28125,-0.109375 h -0.875 C 2.5,-5.71875 2.546875,-5.90625 2.546875,-5.96875 c 0,-0.171875 -0.125,-0.265625 -0.296875,-0.265625 -0.03125,0 -0.3125,0 -0.390625,0.359375 L 1.46875,-4.296875 h -0.9375 c -0.203125,0 -0.296875,0 -0.296875,0.1875 0,0.125 0.078125,0.125 0.28125,0.125 h 0.875 C 0.671875,-1.15625 0.625,-0.984375 0.625,-0.8125 0.625,-0.265625 1,0.109375 1.546875,0.109375 2.5625,0.109375 3.125,-1.34375 3.125,-1.421875 3.125,-1.53125 3.046875,-1.53125 3.015625,-1.53125 2.921875,-1.53125 2.90625,-1.5 2.859375,-1.390625 2.4375,-0.34375 1.90625,-0.109375 1.5625,-0.109375 c -0.203125,0 -0.3125,-0.125 -0.3125,-0.453125 0,-0.25 0.03125,-0.3125 0.0625,-0.484375 z m 0,0"
           transform="translate(187.177,110.99)"
           id="path9844" />
      </g>
      <g
         fill="#000000"
         fill-opacity="1"
         id="g9850">
        <path
           d="m 2.875,-2.5 c 0,-0.765625 -0.109375,-1.96875 -0.65625,-3.109375 -0.59375,-1.21875 -1.453125,-1.875 -1.546875,-1.875 -0.0625,0 -0.109375,0.046875 -0.109375,0.109375 0,0.03125 0,0.046875 0.1875,0.234375 0.984375,0.984375 1.546875,2.5625 1.546875,4.640625 0,1.71875 -0.359375,3.46875 -1.59375,4.71875 C 0.5625,2.34375 0.5625,2.359375 0.5625,2.390625 0.5625,2.453125 0.609375,2.5 0.671875,2.5 0.765625,2.5 1.671875,1.8125 2.25,0.546875 2.765625,-0.546875 2.875,-1.65625 2.875,-2.5 Z m 0,0"
           transform="translate(190.775,110.99)"
           id="path9848" />
      </g>
    </g>
    <g
       ns6:text="$\frac{\|\mathbf{r}(t)\times\mathbf{r}(t+k)\|}{2}$"
       transform="matrix(0.36533273,-0.18688432,0.18688432,0.36533273,-0.43614141,60.364226)"
       style="fill:#00961b;fill-opacity:1;stroke:none;stroke-opacity:1"
       id="g14850">
      <g
         fill="#000000"
         fill-opacity="1"
         id="g14794"
         style="fill:#00961b;fill-opacity:1">
        <path
           d="m 1.4375,-4.96875 c 0,-0.09375 0,-0.25 -0.171875,-0.25 -0.171875,0 -0.171875,0.171875 -0.171875,0.296875 V 1.4375 c 0,0.125 0,0.296875 0.171875,0.296875 0.171875,0 0.171875,-0.15625 0.171875,-0.265625 z m 1.53125,0.046875 c 0,-0.125 0,-0.296875 -0.171875,-0.296875 -0.15625,0 -0.15625,0.15625 -0.15625,0.25 v 6.4375 c 0,0.109375 0,0.265625 0.15625,0.265625 0.171875,0 0.171875,-0.171875 0.171875,-0.296875 z m 0,0"
           transform="translate(179.78,106.258)"
           id="path14792"
           style="fill:#00961b;fill-opacity:1" />
      </g>
      <g
         fill="#000000"
         fill-opacity="1"
         id="g14798"
         style="fill:#00961b;fill-opacity:1">
        <path
           d="m 1.6875,-1.46875 c 0,-0.625 0.28125,-1.3125 0.90625,-1.34375 0,0 -0.09375,0.125 -0.09375,0.296875 0,0.265625 0.203125,0.46875 0.46875,0.46875 0.28125,0 0.484375,-0.203125 0.484375,-0.46875 0,-0.390625 -0.390625,-0.625 -0.828125,-0.625 -0.5,0 -0.828125,0.34375 -1.015625,0.765625 H 1.59375 v -0.765625 l -1.203125,0.0625 V -2.6875 c 0.40625,0 0.453125,0 0.453125,0.265625 v 2.03125 H 0.390625 V 0 C 0.40625,0 0.953125,-0.03125 1.28125,-0.03125 1.546875,-0.03125 2.21875,0 2.265625,0 V -0.390625 H 1.6875 Z m 0,0"
           transform="translate(183.862,106.258)"
           id="path14796"
           style="fill:#00961b;fill-opacity:1" />
      </g>
      <g
         fill="#000000"
         fill-opacity="1"
         id="g14802"
         style="fill:#00961b;fill-opacity:1">
        <path
           d="M 2.46875,-5.21875 C 1.15625,-4.296875 0.796875,-2.8125 0.796875,-1.75 c 0,0.984375 0.296875,2.515625 1.671875,3.484375 0.0625,0 0.140625,0 0.140625,-0.078125 0,-0.046875 -0.015625,-0.0625 -0.0625,-0.109375 C 1.609375,0.703125 1.28125,-0.46875 1.28125,-1.734375 1.28125,-3.625 2,-4.546875 2.5625,-5.0625 2.59375,-5.09375 2.609375,-5.109375 2.609375,-5.140625 2.609375,-5.21875 2.53125,-5.21875 2.46875,-5.21875 Z m 0,0"
           transform="translate(187.59,106.258)"
           id="path14800"
           style="fill:#00961b;fill-opacity:1" />
      </g>
      <g
         fill="#000000"
         fill-opacity="1"
         id="g14806"
         style="fill:#00961b;fill-opacity:1">
        <path
           d="m 1.71875,-2.75 h 0.703125 c 0.140625,0 0.21875,0 0.21875,-0.15625 C 2.640625,-3 2.5625,-3 2.4375,-3 H 1.78125 l 0.25,-1.03125 C 2.046875,-4.0625 2.0625,-4.109375 2.0625,-4.125 c 0,-0.140625 -0.109375,-0.234375 -0.25,-0.234375 -0.171875,0 -0.265625,0.125 -0.328125,0.296875 C 1.4375,-3.875 1.53125,-4.21875 1.21875,-3 H 0.515625 c -0.125,0 -0.21875,0 -0.21875,0.15625 C 0.296875,-2.75 0.375,-2.75 0.5,-2.75 H 1.15625 L 0.75,-1.109375 C 0.703125,-0.9375 0.640625,-0.6875 0.640625,-0.59375 c 0,0.40625 0.359375,0.65625 0.75,0.65625 0.78125,0 1.21875,-0.96875 1.21875,-1.0625 0,-0.09375 -0.09375,-0.09375 -0.109375,-0.09375 -0.09375,0 -0.09375,0.015625 -0.15625,0.140625 -0.1875,0.4375 -0.546875,0.828125 -0.921875,0.828125 -0.15625,0 -0.25,-0.09375 -0.25,-0.34375 0,-0.0625 0.03125,-0.21875 0.046875,-0.28125 z m 0,0"
           transform="translate(190.703,106.258)"
           id="path14804"
           style="fill:#00961b;fill-opacity:1" />
      </g>
      <g
         fill="#000000"
         fill-opacity="1"
         id="g14810"
         style="fill:#00961b;fill-opacity:1">
        <path
           d="m 0.625,-5.21875 c -0.046875,0 -0.125,0 -0.125,0.078125 0,0.03125 0.015625,0.046875 0.0625,0.109375 0.59375,0.546875 1.265625,1.484375 1.265625,3.28125 0,1.453125 -0.453125,2.5625 -1.203125,3.234375 -0.125,0.125 -0.125,0.125 -0.125,0.171875 0,0.03125 0.015625,0.078125 0.078125,0.078125 0.09375,0 0.75,-0.453125 1.21875,-1.328125 0.296875,-0.578125 0.5,-1.328125 0.5,-2.140625 C 2.296875,-2.71875 2,-4.25 0.625,-5.21875 Z m 0,0"
           transform="translate(193.713,106.258)"
           id="path14808"
           style="fill:#00961b;fill-opacity:1" />
      </g>
      <g
         fill="#000000"
         fill-opacity="1"
         id="g14814"
         style="fill:#00961b;fill-opacity:1">
        <path
           d="m 4.875,-3.265625 c 0.078125,-0.078125 0.09375,-0.125 0.09375,-0.171875 0,-0.109375 -0.078125,-0.171875 -0.15625,-0.171875 -0.078125,0 -0.09375,0.015625 -0.171875,0.109375 l -1.53125,1.515625 -1.53125,-1.53125 c -0.078125,-0.0625 -0.09375,-0.09375 -0.15625,-0.09375 -0.109375,0 -0.1875,0.078125 -0.1875,0.171875 0,0.0625 0.03125,0.078125 0.109375,0.171875 L 2.859375,-1.75 1.34375,-0.234375 C 1.25,-0.125 1.234375,-0.09375 1.234375,-0.0625 c 0,0.109375 0.078125,0.1875 0.1875,0.1875 0.0625,0 0.078125,-0.03125 0.15625,-0.109375 L 3.109375,-1.5 4.703125,0.078125 C 4.734375,0.109375 4.765625,0.125 4.8125,0.125 c 0.078125,0 0.15625,-0.0625 0.15625,-0.1875 0,-0.046875 0,-0.0625 -0.03125,-0.078125 -0.015625,-0.03125 -1.359375,-1.390625 -1.578125,-1.59375 z m 0,0"
           transform="translate(196.826,106.258)"
           id="path14812"
           style="fill:#00961b;fill-opacity:1" />
      </g>
      <g
         fill="#000000"
         fill-opacity="1"
         id="g14818"
         style="fill:#00961b;fill-opacity:1">
        <path
           d="m 1.6875,-1.46875 c 0,-0.625 0.28125,-1.3125 0.90625,-1.34375 0,0 -0.09375,0.125 -0.09375,0.296875 0,0.265625 0.203125,0.46875 0.46875,0.46875 0.28125,0 0.484375,-0.203125 0.484375,-0.46875 0,-0.390625 -0.390625,-0.625 -0.828125,-0.625 -0.5,0 -0.828125,0.34375 -1.015625,0.765625 H 1.59375 v -0.765625 l -1.203125,0.0625 V -2.6875 c 0.40625,0 0.453125,0 0.453125,0.265625 v 2.03125 H 0.390625 V 0 C 0.40625,0 0.953125,-0.03125 1.28125,-0.03125 1.546875,-0.03125 2.21875,0 2.265625,0 V -0.390625 H 1.6875 Z m 0,0"
           transform="translate(203.053,106.258)"
           id="path14816"
           style="fill:#00961b;fill-opacity:1" />
      </g>
      <g
         fill="#000000"
         fill-opacity="1"
         id="g14822"
         style="fill:#00961b;fill-opacity:1">
        <path
           d="M 2.46875,-5.21875 C 1.15625,-4.296875 0.796875,-2.8125 0.796875,-1.75 c 0,0.984375 0.296875,2.515625 1.671875,3.484375 0.0625,0 0.140625,0 0.140625,-0.078125 0,-0.046875 -0.015625,-0.0625 -0.0625,-0.109375 C 1.609375,0.703125 1.28125,-0.46875 1.28125,-1.734375 1.28125,-3.625 2,-4.546875 2.5625,-5.0625 2.59375,-5.09375 2.609375,-5.109375 2.609375,-5.140625 2.609375,-5.21875 2.53125,-5.21875 2.46875,-5.21875 Z m 0,0"
           transform="translate(206.78,106.258)"
           id="path14820"
           style="fill:#00961b;fill-opacity:1" />
      </g>
      <g
         fill="#000000"
         fill-opacity="1"
         id="g14826"
         style="fill:#00961b;fill-opacity:1">
        <path
           d="m 1.71875,-2.75 h 0.703125 c 0.140625,0 0.21875,0 0.21875,-0.15625 C 2.640625,-3 2.5625,-3 2.4375,-3 H 1.78125 l 0.25,-1.03125 C 2.046875,-4.0625 2.0625,-4.109375 2.0625,-4.125 c 0,-0.140625 -0.109375,-0.234375 -0.25,-0.234375 -0.171875,0 -0.265625,0.125 -0.328125,0.296875 C 1.4375,-3.875 1.53125,-4.21875 1.21875,-3 H 0.515625 c -0.125,0 -0.21875,0 -0.21875,0.15625 C 0.296875,-2.75 0.375,-2.75 0.5,-2.75 H 1.15625 L 0.75,-1.109375 C 0.703125,-0.9375 0.640625,-0.6875 0.640625,-0.59375 c 0,0.40625 0.359375,0.65625 0.75,0.65625 0.78125,0 1.21875,-0.96875 1.21875,-1.0625 0,-0.09375 -0.09375,-0.09375 -0.109375,-0.09375 -0.09375,0 -0.09375,0.015625 -0.15625,0.140625 -0.1875,0.4375 -0.546875,0.828125 -0.921875,0.828125 -0.15625,0 -0.25,-0.09375 -0.25,-0.34375 0,-0.0625 0.03125,-0.21875 0.046875,-0.28125 z m 0,0"
           transform="translate(209.894,106.258)"
           id="path14824"
           style="fill:#00961b;fill-opacity:1" />
      </g>
      <g
         fill="#000000"
         fill-opacity="1"
         id="g14830"
         style="fill:#00961b;fill-opacity:1">
        <path
           d="m 3.21875,-1.578125 h 2.140625 c 0.09375,0 0.25,0 0.25,-0.15625 0,-0.1875 -0.15625,-0.1875 -0.25,-0.1875 H 3.21875 V -4.0625 c 0,-0.078125 0,-0.25 -0.15625,-0.25 -0.171875,0 -0.171875,0.15625 -0.171875,0.25 v 2.140625 H 0.75 c -0.09375,0 -0.265625,0 -0.265625,0.171875 0,0.171875 0.15625,0.171875 0.265625,0.171875 H 2.890625 V 0.5625 c 0,0.09375 0,0.265625 0.15625,0.265625 0.171875,0 0.171875,-0.171875 0.171875,-0.265625 z m 0,0"
           transform="translate(212.903,106.258)"
           id="path14828"
           style="fill:#00961b;fill-opacity:1" />
      </g>
      <g
         fill="#000000"
         fill-opacity="1"
         id="g14834"
         style="fill:#00961b;fill-opacity:1">
        <path
           d="m 2.1875,-4.625 c 0,-0.015625 0.015625,-0.109375 0.015625,-0.109375 0,-0.046875 -0.015625,-0.109375 -0.109375,-0.109375 -0.140625,0 -0.71875,0.0625 -0.890625,0.078125 -0.046875,0 -0.15625,0.015625 -0.15625,0.15625 0,0.09375 0.109375,0.09375 0.1875,0.09375 0.328125,0 0.328125,0.0625 0.328125,0.109375 0,0.046875 -0.015625,0.09375 -0.015625,0.15625 L 0.5625,-0.3125 c -0.046875,0.125 -0.046875,0.140625 -0.046875,0.15625 0,0.109375 0.09375,0.21875 0.25,0.21875 0.1875,0 0.265625,-0.125 0.3125,-0.28125 0.015625,-0.03125 0.3125,-1.265625 0.34375,-1.359375 0.5,0.046875 0.890625,0.21875 0.890625,0.578125 0,0.03125 0,0.0625 -0.015625,0.140625 -0.03125,0.09375 -0.03125,0.140625 -0.03125,0.21875 0,0.484375 0.40625,0.703125 0.75,0.703125 0.671875,0 0.875,-1.046875 0.875,-1.0625 0,-0.09375 -0.078125,-0.09375 -0.109375,-0.09375 -0.09375,0 -0.109375,0.046875 -0.140625,0.171875 C 3.5625,-0.625 3.375,-0.125 3.03125,-0.125 c -0.1875,0 -0.25,-0.171875 -0.25,-0.359375 0,-0.125 0,-0.140625 0.046875,-0.3125 0.015625,-0.03125 0.03125,-0.140625 0.03125,-0.21875 0,-0.625 -0.828125,-0.71875 -1.125,-0.734375 C 1.9375,-1.875 2.1875,-2.109375 2.3125,-2.21875 2.671875,-2.546875 3.015625,-2.875 3.40625,-2.875 c 0.078125,0 0.171875,0.015625 0.234375,0.09375 C 3.34375,-2.734375 3.28125,-2.5 3.28125,-2.390625 c 0,0.140625 0.109375,0.25 0.265625,0.25 0.203125,0 0.40625,-0.15625 0.40625,-0.4375 0,-0.234375 -0.171875,-0.5 -0.53125,-0.5 -0.40625,0 -0.765625,0.296875 -1.125,0.625 C 2,-2.1875 1.78125,-1.96875 1.484375,-1.84375 Z m 0,0"
           transform="translate(219.019,106.258)"
           id="path14832"
           style="fill:#00961b;fill-opacity:1" />
      </g>
      <g
         fill="#000000"
         fill-opacity="1"
         id="g14838"
         style="fill:#00961b;fill-opacity:1">
        <path
           d="m 0.625,-5.21875 c -0.046875,0 -0.125,0 -0.125,0.078125 0,0.03125 0.015625,0.046875 0.0625,0.109375 0.59375,0.546875 1.265625,1.484375 1.265625,3.28125 0,1.453125 -0.453125,2.5625 -1.203125,3.234375 -0.125,0.125 -0.125,0.125 -0.125,0.171875 0,0.03125 0.015625,0.078125 0.078125,0.078125 0.09375,0 0.75,-0.453125 1.21875,-1.328125 0.296875,-0.578125 0.5,-1.328125 0.5,-2.140625 C 2.296875,-2.71875 2,-4.25 0.625,-5.21875 Z m 0,0"
           transform="translate(223.423,106.258)"
           id="path14836"
           style="fill:#00961b;fill-opacity:1" />
      </g>
      <g
         fill="#000000"
         fill-opacity="1"
         id="g14842"
         style="fill:#00961b;fill-opacity:1">
        <path
           d="m 1.4375,-4.96875 c 0,-0.09375 0,-0.25 -0.171875,-0.25 -0.171875,0 -0.171875,0.171875 -0.171875,0.296875 V 1.4375 c 0,0.125 0,0.296875 0.171875,0.296875 0.171875,0 0.171875,-0.15625 0.171875,-0.265625 z m 1.53125,0.046875 c 0,-0.125 0,-0.296875 -0.171875,-0.296875 -0.15625,0 -0.15625,0.15625 -0.15625,0.25 v 6.4375 c 0,0.109375 0,0.265625 0.15625,0.265625 0.171875,0 0.171875,-0.171875 0.171875,-0.296875 z m 0,0"
           transform="translate(226.536,106.258)"
           id="path14840"
           style="fill:#00961b;fill-opacity:1" />
      </g>
      <path
         fill="none"
         stroke-width="0.3985"
         stroke-linecap="butt"
         stroke-linejoin="miter"
         stroke="#000000"
         stroke-opacity="1"
         stroke-miterlimit="10"
         d="m 107.78125,-36.597656 h 50.83594"
         id="path14844"
         style="fill:#00961b;fill-opacity:1;stroke:#00961b;stroke-opacity:1"
         transform="matrix(1,0,0,-1,72,72)" />
      <g
         fill="#000000"
         fill-opacity="1"
         id="g14848"
         style="fill:#00961b;fill-opacity:1">
        <path
           d="M 3.515625,-1.265625 H 3.28125 c -0.015625,0.15625 -0.09375,0.5625 -0.1875,0.625 C 3.046875,-0.59375 2.515625,-0.59375 2.40625,-0.59375 H 1.125 c 0.734375,-0.640625 0.984375,-0.84375 1.390625,-1.171875 0.515625,-0.40625 1,-0.84375 1,-1.5 0,-0.84375 -0.734375,-1.359375 -1.625,-1.359375 -0.859375,0 -1.453125,0.609375 -1.453125,1.25 0,0.34375 0.296875,0.390625 0.375,0.390625 0.15625,0 0.359375,-0.125 0.359375,-0.375 0,-0.125 -0.046875,-0.375 -0.40625,-0.375 C 0.984375,-4.21875 1.453125,-4.375 1.78125,-4.375 c 0.703125,0 1.0625,0.546875 1.0625,1.109375 0,0.609375 -0.4375,1.078125 -0.65625,1.328125 L 0.515625,-0.265625 C 0.4375,-0.203125 0.4375,-0.1875 0.4375,0 h 2.875 z m 0,0"
           transform="translate(203.213,114.526)"
           id="path14846"
           style="fill:#00961b;fill-opacity:1" />
      </g>
    </g>
  </g>
</svg>
