<?xml version="1.0" encoding="UTF-8" standalone="no"?>
<!-- Created with Inkscape (http://www.inkscape.org/) -->

<svg
   sodipodi:docname="polar_motion_matrix.svg"
   xml:space="preserve"
   id="svg5"
   version="1.1"
   viewBox="0 0 210 297"
   height="297mm"
   width="210mm"
   inkscape:version="1.2.2 (b0a8486541, 2022-12-01)"
   inkscape:export-filename="polar_motion_matrix.pdf"
   inkscape:export-xdpi="96"
   inkscape:export-ydpi="96"
   xmlns:inkscape="http://www.inkscape.org/namespaces/inkscape"
   xmlns:sodipodi="http://sodipodi.sourceforge.net/DTD/sodipodi-0.dtd"
   xmlns="http://www.w3.org/2000/svg"
   xmlns:svg="http://www.w3.org/2000/svg"
   xmlns:ns1="http://wanglongqi.github.io/WriteTeX"><sodipodi:namedview
     id="namedview7"
     pagecolor="#ffffff"
     bordercolor="#999999"
     borderopacity="1"
     inkscape:showpageshadow="0"
     inkscape:pageopacity="0"
     inkscape:pagecheckerboard="0"
     inkscape:deskcolor="#d1d1d1"
     inkscape:document-units="mm"
     showgrid="false"
     inkscape:zoom="1.6819304"
     inkscape:cx="360.89484"
     inkscape:cy="502.99347"
     inkscape:window-width="1896"
     inkscape:window-height="1185"
     inkscape:window-x="0"
     inkscape:window-y="0"
     inkscape:window-maximized="1"
     inkscape:current-layer="layer1" /><defs
     id="defs2"><marker
       style="overflow:visible"
       id="marker11847"
       refX="0"
       refY="0"
       orient="auto-start-reverse"
       inkscape:stockid="Arrow1L"
       markerWidth="8.75"
       markerHeight="5"
       viewBox="0 0 8.75 5"
       inkscape:isstock="true"
       inkscape:collect="always"
       preserveAspectRatio="xMidYMid"><path
         style="fill:context-stroke;fill-rule:evenodd;stroke:none"
         d="M 0,0 5,-5 -12.5,0 5,5 Z"
         id="path11845"
         transform="scale(-0.5)" /></marker><inkscape:path-effect
       effect="spiro"
       id="path-effect11607"
       is_visible="true"
       lpeversion="1" /><marker
       style="overflow:visible"
       id="marker11263"
       refX="0"
       refY="0"
       orient="auto-start-reverse"
       inkscape:stockid="Arrow1L"
       markerWidth="8.75"
       markerHeight="5"
       viewBox="0 0 8.75 5"
       inkscape:isstock="true"
       inkscape:collect="always"
       preserveAspectRatio="xMidYMid"><path
         style="fill:context-stroke;fill-rule:evenodd;stroke:none"
         d="M 0,0 5,-5 -12.5,0 5,5 Z"
         id="path11261"
         transform="scale(-0.5)" /></marker><inkscape:path-effect
       effect="spiro"
       id="path-effect10755"
       is_visible="true"
       lpeversion="1" /><marker
       style="overflow:visible"
       id="marker7696"
       refX="0"
       refY="0"
       orient="auto-start-reverse"
       inkscape:stockid="Arrow1L"
       markerWidth="8.75"
       markerHeight="5"
       viewBox="0 0 8.75 5"
       inkscape:isstock="true"
       inkscape:collect="always"
       preserveAspectRatio="xMidYMid"><path
         style="fill:context-stroke;fill-rule:evenodd;stroke:none"
         d="M 0,0 5,-5 -12.5,0 5,5 Z"
         id="path7694"
         transform="scale(-0.5)" /></marker><marker
       style="overflow:visible"
       id="marker5159"
       refX="0"
       refY="0"
       orient="auto-start-reverse"
       inkscape:stockid="Arrow1L"
       markerWidth="8.75"
       markerHeight="5"
       viewBox="0 0 8.75 5"
       inkscape:isstock="true"
       inkscape:collect="always"
       preserveAspectRatio="xMidYMid"><path
         style="fill:context-stroke;fill-rule:evenodd;stroke:none"
         d="M 0,0 5,-5 -12.5,0 5,5 Z"
         id="path5157"
         transform="scale(-0.5)" /></marker><marker
       style="overflow:visible"
       id="Arrow1L"
       refX="0"
       refY="0"
       orient="auto-start-reverse"
       inkscape:stockid="Arrow1L"
       markerWidth="8.75"
       markerHeight="5"
       viewBox="0 0 8.75 5"
       inkscape:isstock="true"
       inkscape:collect="always"
       preserveAspectRatio="xMidYMid"><path
         style="fill:context-stroke;fill-rule:evenodd;stroke:none"
         d="M 0,0 5,-5 -12.5,0 5,5 Z"
         id="arrow1L"
         transform="scale(-0.5)" /></marker><marker
       style="overflow:visible"
       id="Arrow1L-3"
       refX="0"
       refY="0"
       orient="auto-start-reverse"
       inkscape:stockid="Arrow1L"
       markerWidth="8.75"
       markerHeight="5"
       viewBox="0 0 8.75 5"
       inkscape:isstock="true"
       inkscape:collect="always"
       preserveAspectRatio="xMidYMid"><path
         style="fill:context-stroke;fill-rule:evenodd;stroke:none"
         d="M 0,0 5,-5 -12.5,0 5,5 Z"
         id="arrow1L-6"
         transform="scale(-0.5)" /></marker><marker
       style="overflow:visible"
       id="Arrow1L-3-5"
       refX="0"
       refY="0"
       orient="auto-start-reverse"
       inkscape:stockid="Arrow1L"
       markerWidth="8.75"
       markerHeight="5"
       viewBox="0 0 8.75 5"
       inkscape:isstock="true"
       inkscape:collect="always"
       preserveAspectRatio="xMidYMid"><path
         style="fill:context-stroke;fill-rule:evenodd;stroke:none"
         d="M 0,0 5,-5 -12.5,0 5,5 Z"
         id="arrow1L-6-3"
         transform="scale(-0.5)" /></marker><marker
       style="overflow:visible"
       id="Arrow1L-0"
       refX="0"
       refY="0"
       orient="auto-start-reverse"
       inkscape:stockid="Arrow1L"
       markerWidth="8.75"
       markerHeight="5"
       viewBox="0 0 8.75 5"
       inkscape:isstock="true"
       inkscape:collect="always"
       preserveAspectRatio="xMidYMid"><path
         style="fill:context-stroke;fill-rule:evenodd;stroke:none"
         d="M 0,0 5,-5 -12.5,0 5,5 Z"
         id="arrow1L-62"
         transform="scale(-0.5)" /></marker><marker
       style="overflow:visible"
       id="Arrow1L-3-6"
       refX="0"
       refY="0"
       orient="auto-start-reverse"
       inkscape:stockid="Arrow1L"
       markerWidth="8.75"
       markerHeight="5"
       viewBox="0 0 8.75 5"
       inkscape:isstock="true"
       inkscape:collect="always"
       preserveAspectRatio="xMidYMid"><path
         style="fill:context-stroke;fill-rule:evenodd;stroke:none"
         d="M 0,0 5,-5 -12.5,0 5,5 Z"
         id="arrow1L-6-1"
         transform="scale(-0.5)" /></marker><marker
       style="overflow:visible"
       id="Arrow1L-3-5-8"
       refX="0"
       refY="0"
       orient="auto-start-reverse"
       inkscape:stockid="Arrow1L"
       markerWidth="8.75"
       markerHeight="5"
       viewBox="0 0 8.75 5"
       inkscape:isstock="true"
       inkscape:collect="always"
       preserveAspectRatio="xMidYMid"><path
         style="fill:context-stroke;fill-rule:evenodd;stroke:none"
         d="M 0,0 5,-5 -12.5,0 5,5 Z"
         id="arrow1L-6-3-7"
         transform="scale(-0.5)" /></marker><inkscape:path-effect
       effect="spiro"
       id="path-effect10755-5"
       is_visible="true"
       lpeversion="1" /></defs><g
     inkscape:label="Layer 1"
     inkscape:groupmode="layer"
     id="layer1"><path
       style="fill:none;stroke:#008309;stroke-width:0.3;stroke-linecap:round;stroke-linejoin:round;stroke-dasharray:0.60000003,0.60000003;stroke-dashoffset:0;stroke-opacity:1"
       id="path234-7"
       sodipodi:type="arc"
       sodipodi:cx="91.540421"
       sodipodi:cy="78.945724"
       sodipodi:rx="92.290489"
       sodipodi:ry="67.713173"
       sodipodi:start="0.46493826"
       sodipodi:end="1.3665928"
       sodipodi:arc-type="arc"
       d="m 174.03421,109.30612 a 92.290489,67.713173 0 0 1 -63.77845,35.94589"
       sodipodi:open="true" /><path
       style="fill:none;stroke:#008309;stroke-width:0.5;stroke-linecap:round;stroke-linejoin:round;stroke-dasharray:1, 1;stroke-dashoffset:0;stroke-opacity:1;marker-end:url(#Arrow1L-0)"
       d="m 134.89714,121.49124 -22.51513,21.50195"
       id="path952-2" /><path
       style="fill:none;stroke:#008309;stroke-width:0.5;stroke-linecap:round;stroke-linejoin:round;stroke-dasharray:0.99999793,0.99999793;stroke-dashoffset:0;stroke-opacity:1;marker-end:url(#Arrow1L-3-6)"
       d="m 135.28179,121.39288 22.41176,2.13614"
       id="path952-7-0" /><path
       style="fill:none;fill-opacity:1;stroke:#dd8d00;stroke-width:0.5;stroke-linecap:round;stroke-linejoin:round;stroke-dasharray:0.05,1.50000208;stroke-dashoffset:0;stroke-opacity:1;marker-start:url(#marker5159)"
       d="m 165.26127,116.49935 -30.48637,4.79292"
       id="path4841-3" /><path
       style="fill:none;fill-opacity:1;stroke:#dd8d00;stroke-width:0.295398;stroke-linecap:round;stroke-linejoin:round;stroke-dasharray:0.0295398, 0.886195;stroke-dashoffset:0;stroke-opacity:1"
       id="path5261"
       sodipodi:type="arc"
       sodipodi:cx="132.3631"
       sodipodi:cy="117.74313"
       sodipodi:rx="17.033104"
       sodipodi:ry="31.049767"
       sodipodi:start="2.1977911"
       sodipodi:end="4.008712"
       sodipodi:arc-type="arc"
       d="m 122.36954,142.88706 a 17.033104,31.049767 0 0 1 -7.02703,-23.95374 17.033104,31.049767 0 0 1 5.99973,-24.864648"
       sodipodi:open="true" /><path
       style="fill:none;fill-opacity:1;stroke:#008309;stroke-width:0.3;stroke-linecap:round;stroke-linejoin:round;stroke-dasharray:0.6, 0.6;stroke-dashoffset:0;stroke-opacity:1"
       id="path5261-1"
       sodipodi:type="arc"
       sodipodi:cx="135.15125"
       sodipodi:cy="128.64989"
       sodipodi:rx="27.318001"
       sodipodi:ry="40.173244"
       sodipodi:start="2.7161512"
       sodipodi:end="4.2230859"
       sodipodi:arc-type="arc"
       d="M 110.26846,145.23031 A 27.318001,40.173244 0 0 1 122.31149,93.190545"
       sodipodi:open="true" /><path
       style="fill:none;stroke:#008309;stroke-width:0.5;stroke-linecap:round;stroke-linejoin:round;stroke-dasharray:1, 1;stroke-dashoffset:0;stroke-opacity:1;marker-end:url(#Arrow1L-3-5-8)"
       d="M 134.9262,121.29316 122.84007,94.766247"
       id="path952-7-5-2" /><path
       style="fill:none;stroke:#005eec;stroke-width:0.3;stroke-linecap:round;stroke-linejoin:round;stroke-dasharray:none;stroke-opacity:1"
       id="path234"
       sodipodi:type="arc"
       sodipodi:cx="121.4999"
       sodipodi:cy="114.32886"
       sodipodi:rx="49.556252"
       sodipodi:ry="25.899887"
       sodipodi:start="0.28342386"
       sodipodi:end="1.9338248"
       sodipodi:arc-type="arc"
       d="m 169.07904,121.57162 a 49.556252,25.899887 0 0 1 -25.48234,15.93987 49.556252,25.899887 0 0 1 -39.69457,1.02925"
       sodipodi:open="true" /><path
       style="fill:none;fill-opacity:1;stroke:#dd8d00;stroke-width:0.5;stroke-linecap:round;stroke-linejoin:round;stroke-dasharray:0.05,1.50000266;stroke-dashoffset:0;stroke-opacity:1;marker-end:url(#Arrow1L-3-6)"
       d="m 134.52831,122.54066 -10.62335,17.51962"
       id="path4841" /><g
       id="g3707"
       style="stroke:#005eec;stroke-opacity:1"><path
         style="fill:none;stroke:#005eec;stroke-width:0.5;stroke-linecap:round;stroke-linejoin:round;stroke-dasharray:none;stroke-opacity:1;marker-end:url(#Arrow1L)"
         d="m 135.07422,121.42804 -12.77889,16.76903"
         id="path952" /><path
         style="fill:none;stroke:#005eec;stroke-width:0.5;stroke-linecap:round;stroke-linejoin:round;stroke-dasharray:none;stroke-opacity:1;marker-end:url(#Arrow1L-3)"
         d="m 134.90823,121.36116 31.16575,0.009"
         id="path952-7" /><path
         style="fill:none;stroke:#005eec;stroke-width:0.5;stroke-linecap:round;stroke-linejoin:round;stroke-dasharray:none;stroke-opacity:1;marker-end:url(#Arrow1L-3-5)"
         d="m 134.91498,121.25074 -0.0325,-31.165749"
         id="path952-7-5" /></g><path
       style="fill:none;fill-opacity:1;stroke:#dd8d00;stroke-width:0.303039;stroke-linecap:round;stroke-linejoin:round;stroke-dasharray:0.0303039, 0.909117;stroke-dashoffset:0;stroke-opacity:1"
       id="path7019"
       sodipodi:type="arc"
       sodipodi:cx="168.12993"
       sodipodi:cy="119.4145"
       sodipodi:rx="1.1498429"
       sodipodi:ry="3.8099999"
       sodipodi:start="5.386714"
       sodipodi:end="0.68628092"
       sodipodi:arc-type="arc"
       d="m 168.84786,116.4384 a 1.1498429,3.8099999 0 0 1 0.42557,2.57642 1.1498429,3.8099999 0 0 1 -0.25397,2.81394"
       sodipodi:open="true" /><path
       style="fill:none;fill-opacity:1;stroke:#000000;stroke-width:0.335692;stroke-linecap:round;stroke-linejoin:round;stroke-dasharray:none;stroke-dashoffset:0;stroke-opacity:1;marker-start:url(#marker7696)"
       id="path7092"
       sodipodi:type="arc"
       sodipodi:cx="99.843056"
       sodipodi:cy="167.32739"
       sodipodi:rx="10.974662"
       sodipodi:ry="1.7254971"
       sodipodi:start="0.96329771"
       sodipodi:end="1.9827215"
       sodipodi:arc-type="arc"
       d="m 106.10756,168.74416 a 10.974662,1.7254971 0 0 1 -10.658476,0.16439"
       sodipodi:open="true"
       transform="matrix(0.98361728,-0.18026935,0.10775272,0.99417773,0,0)" /><path
       style="fill:none;fill-opacity:1;stroke:#000000;stroke-width:0.2;stroke-linecap:round;stroke-linejoin:round;stroke-dasharray:none;stroke-dashoffset:0;stroke-opacity:1;marker-start:url(#marker11263)"
       d="m 120.25873,140.95476 c 0.0558,0.41352 0.22398,0.81132 0.48164,1.13953 0.22643,0.28843 0.52122,0.52284 0.85325,0.67847"
       id="path10753"
       inkscape:path-effect="#path-effect10755"
       inkscape:original-d="m 120.25873,140.95476 c 0.16055,0.38 0.32113,0.75982 0.48164,1.13953 0.16049,0.37968 0.56891,0.45245 0.85325,0.67847" /><path
       style="fill:none;fill-opacity:1;stroke:#000000;stroke-width:0.2;stroke-linecap:round;stroke-linejoin:round;stroke-dasharray:none;stroke-dashoffset:0;stroke-opacity:1;marker-start:url(#marker11847)"
       d="m 169.92566,116.24928 c 0.53041,0.78618 0.8762,1.69606 1.00181,2.63608 0.12271,0.91831 0.0353,1.86408 -0.2537,2.74433"
       id="path11605"
       inkscape:path-effect="#path-effect11607"
       inkscape:original-d="m 169.92566,116.24928 c 0.32924,0.87995 0.66805,1.75749 1.00181,2.63608 0.33375,0.8786 -0.16897,1.82966 -0.2537,2.74433" /><g
       ns1:text="$x_{\mathrm{ECEF}}$"
       transform="matrix(0.63926066,0,0,0.63926066,55.514147,54.600155)"
       id="g12553"
       style="fill:#005eec;fill-opacity:1;stroke-width:123.957;stroke-dasharray:none"><g
   fill="#000000"
   fill-opacity="1"
   id="g12541"
   style="fill:#005eec;fill-opacity:1;stroke-width:123.957;stroke-dasharray:none">
<path
   d="M 3.328125,-3.015625 C 3.390625,-3.265625 3.625,-4.1875 4.3125,-4.1875 c 0.046875,0 0.296875,0 0.5,0.125 C 4.53125,-4 4.34375,-3.765625 4.34375,-3.515625 c 0,0.15625 0.109375,0.34375 0.375,0.34375 0.21875,0 0.53125,-0.171875 0.53125,-0.578125 0,-0.515625 -0.578125,-0.65625 -0.921875,-0.65625 -0.578125,0 -0.921875,0.53125 -1.046875,0.75 -0.25,-0.65625 -0.78125,-0.75 -1.078125,-0.75 -1.03125,0 -1.609375,1.28125 -1.609375,1.53125 0,0.109375 0.109375,0.109375 0.125,0.109375 0.078125,0 0.109375,-0.03125 0.125,-0.109375 0.34375,-1.0625 1,-1.3125 1.34375,-1.3125 0.1875,0 0.53125,0.09375 0.53125,0.671875 0,0.3125 -0.171875,0.96875 -0.53125,2.375 -0.15625,0.609375 -0.515625,1.03125 -0.953125,1.03125 -0.0625,0 -0.28125,0 -0.5,-0.125 0.25,-0.0625 0.46875,-0.265625 0.46875,-0.546875 0,-0.265625 -0.21875,-0.34375 -0.359375,-0.34375 -0.3125,0 -0.546875,0.25 -0.546875,0.578125 0,0.453125 0.484375,0.65625 0.921875,0.65625 0.671875,0 1.03125,-0.703125 1.046875,-0.75 0.125,0.359375 0.484375,0.75 1.078125,0.75 1.03125,0 1.59375,-1.28125 1.59375,-1.53125 0,-0.109375 -0.078125,-0.109375 -0.109375,-0.109375 -0.09375,0 -0.109375,0.046875 -0.140625,0.109375 -0.328125,1.078125 -1,1.3125 -1.3125,1.3125 -0.390625,0 -0.546875,-0.3125 -0.546875,-0.65625 0,-0.21875 0.046875,-0.4375 0.15625,-0.875 z m 0,0"
   transform="translate(178.585,110.99)"
   id="path12539"
   style="fill:#005eec;fill-opacity:1;stroke-width:123.957;stroke-dasharray:none" />
</g>
<g
   fill="#000000"
   fill-opacity="1"
   id="g12551"
   style="fill:#005eec;fill-opacity:1;stroke-width:123.957;stroke-dasharray:none">
<path
   d="M 5.078125,-1.828125 H 4.84375 C 4.65625,-0.78125 4.5,-0.25 3.203125,-0.25 h -1.09375 c -0.328125,0 -0.34375,-0.0625 -0.34375,-0.265625 v -1.8125 H 2.46875 c 0.703125,0 0.8125,0.203125 0.8125,0.8125 H 3.515625 V -3.40625 H 3.28125 c 0,0.609375 -0.109375,0.828125 -0.8125,0.828125 H 1.765625 v -1.625 c 0,-0.21875 0.015625,-0.28125 0.34375,-0.28125 H 3.15625 c 1.140625,0 1.34375,0.375 1.46875,1.359375 h 0.234375 l -0.21875,-1.609375 h -4.25 v 0.25 H 0.5625 c 0.53125,0 0.546875,0.078125 0.546875,0.3125 V -0.5625 c 0,0.234375 -0.015625,0.3125 -0.546875,0.3125 H 0.390625 V 0 h 4.375 z m 0,0"
   transform="translate(184.278,112.485)"
   id="path12543"
   style="fill:#005eec;fill-opacity:1;stroke-width:123.957;stroke-dasharray:none" />
<path
   d="m 5.1875,-4.71875 c 0,-0.125 0,-0.1875 -0.09375,-0.1875 -0.03125,0 -0.0625,0 -0.125,0.09375 l -0.375,0.53125 c -0.28125,-0.296875 -0.765625,-0.625 -1.4375,-0.625 -1.46875,0 -2.671875,1.140625 -2.671875,2.515625 0,1.421875 1.234375,2.53125 2.671875,2.53125 1.234375,0 2.03125,-0.921875 2.03125,-1.765625 0,-0.078125 -0.015625,-0.140625 -0.125,-0.140625 -0.03125,0 -0.109375,0 -0.109375,0.09375 -0.0625,1.125 -1.015625,1.5625 -1.703125,1.5625 -0.734375,0 -2.015625,-0.453125 -2.015625,-2.265625 0,-1.890625 1.34375,-2.265625 2,-2.265625 0.703125,0 1.515625,0.453125 1.703125,1.65625 0.015625,0.078125 0.078125,0.078125 0.125,0.078125 0.125,0 0.125,-0.046875 0.125,-0.1875 z m 0,0"
   transform="translate(189.6269,112.485)"
   id="path12545"
   style="fill:#005eec;fill-opacity:1;stroke-width:123.957;stroke-dasharray:none" />
<path
   d="M 5.078125,-1.828125 H 4.84375 C 4.65625,-0.78125 4.5,-0.25 3.203125,-0.25 h -1.09375 c -0.328125,0 -0.34375,-0.0625 -0.34375,-0.265625 v -1.8125 H 2.46875 c 0.703125,0 0.8125,0.203125 0.8125,0.8125 H 3.515625 V -3.40625 H 3.28125 c 0,0.609375 -0.109375,0.828125 -0.8125,0.828125 H 1.765625 v -1.625 c 0,-0.21875 0.015625,-0.28125 0.34375,-0.28125 H 3.15625 c 1.140625,0 1.34375,0.375 1.46875,1.359375 h 0.234375 l -0.21875,-1.609375 h -4.25 v 0.25 H 0.5625 c 0.53125,0 0.546875,0.078125 0.546875,0.3125 V -0.5625 c 0,0.234375 -0.015625,0.3125 -0.546875,0.3125 H 0.390625 V 0 h 4.375 z m 0,0"
   transform="translate(195.31055,112.485)"
   id="path12547"
   style="fill:#005eec;fill-opacity:1;stroke-width:123.957;stroke-dasharray:none" />
<path
   d="m 4.546875,-4.734375 h -4.15625 v 0.25 H 0.5625 c 0.53125,0 0.546875,0.078125 0.546875,0.3125 V -0.5625 c 0,0.234375 -0.015625,0.3125 -0.546875,0.3125 H 0.390625 V 0 c 0,0 0.796875,-0.03125 1.0625,-0.03125 C 1.734375,-0.03125 2.5625,0 2.671875,0 v -0.25 h -0.25 c -0.65625,0 -0.65625,-0.09375 -0.65625,-0.328125 V -2.25 h 0.6875 c 0.6875,0 0.78125,0.21875 0.78125,0.828125 h 0.25 V -3.3125 h -0.25 c 0,0.609375 -0.09375,0.8125 -0.78125,0.8125 h -0.6875 v -1.703125 c 0,-0.21875 0.015625,-0.28125 0.34375,-0.28125 h 0.96875 c 1.125,0 1.3125,0.375 1.4375,1.359375 H 4.75 Z m 0,0"
   transform="translate(200.65946,112.485)"
   id="path12549"
   style="fill:#005eec;fill-opacity:1;stroke-width:123.957;stroke-dasharray:none" />
</g>
</g><g
       ns1:text="$y_{\mathrm{ECEF}}$"
       transform="matrix(0.59655254,0,0,0.59655254,21.515002,67.310298)"
       id="g12746"
       style="fill:#005eec;fill-opacity:1;stroke-width:132.831;stroke-dasharray:none"><g
   fill="#000000"
   fill-opacity="1"
   id="g12734"
   style="fill:#005eec;fill-opacity:1;stroke-width:132.831;stroke-dasharray:none">
<path
   d="m 4.84375,-3.796875 c 0.046875,-0.140625 0.046875,-0.15625 0.046875,-0.234375 0,-0.171875 -0.140625,-0.265625 -0.296875,-0.265625 -0.09375,0 -0.25,0.0625 -0.34375,0.203125 -0.015625,0.0625 -0.109375,0.359375 -0.140625,0.546875 -0.078125,0.25 -0.140625,0.53125 -0.203125,0.796875 l -0.453125,1.796875 c -0.03125,0.140625 -0.46875,0.84375 -1.125,0.84375 -0.5,0 -0.609375,-0.4375 -0.609375,-0.8125 C 1.71875,-1.375 1.890625,-2 2.21875,-2.875 2.375,-3.28125 2.421875,-3.390625 2.421875,-3.59375 c 0,-0.4375 -0.3125,-0.8125 -0.8125,-0.8125 -0.953125,0 -1.3125,1.453125 -1.3125,1.53125 0,0.109375 0.09375,0.109375 0.109375,0.109375 0.109375,0 0.109375,-0.03125 0.15625,-0.1875 0.28125,-0.9375 0.671875,-1.234375 1.015625,-1.234375 0.078125,0 0.25,0 0.25,0.3125 0,0.25 -0.109375,0.515625 -0.171875,0.703125 -0.40625,1.0625 -0.578125,1.625 -0.578125,2.09375 0,0.890625 0.625,1.1875 1.21875,1.1875 0.390625,0 0.71875,-0.171875 1,-0.453125 -0.125,0.515625 -0.25,1.015625 -0.640625,1.546875 -0.265625,0.328125 -0.640625,0.625 -1.09375,0.625 -0.140625,0 -0.59375,-0.03125 -0.765625,-0.421875 0.15625,0 0.296875,0 0.421875,-0.125 C 1.328125,1.203125 1.421875,1.0625 1.421875,0.875 1.421875,0.5625 1.15625,0.53125 1.0625,0.53125 0.828125,0.53125 0.5,0.6875 0.5,1.171875 c 0,0.5 0.4375,0.875 1.0625,0.875 1.015625,0 2.046875,-0.90625 2.328125,-2.03125 z m 0,0"
   transform="translate(178.585,110.99)"
   id="path12732"
   style="fill:#005eec;fill-opacity:1;stroke-width:132.831;stroke-dasharray:none" />
</g>
<g
   fill="#000000"
   fill-opacity="1"
   id="g12744"
   style="fill:#005eec;fill-opacity:1;stroke-width:132.831;stroke-dasharray:none">
<path
   d="M 5.078125,-1.828125 H 4.84375 C 4.65625,-0.78125 4.5,-0.25 3.203125,-0.25 h -1.09375 c -0.328125,0 -0.34375,-0.0625 -0.34375,-0.265625 v -1.8125 H 2.46875 c 0.703125,0 0.8125,0.203125 0.8125,0.8125 H 3.515625 V -3.40625 H 3.28125 c 0,0.609375 -0.109375,0.828125 -0.8125,0.828125 H 1.765625 v -1.625 c 0,-0.21875 0.015625,-0.28125 0.34375,-0.28125 H 3.15625 c 1.140625,0 1.34375,0.375 1.46875,1.359375 h 0.234375 l -0.21875,-1.609375 h -4.25 v 0.25 H 0.5625 c 0.53125,0 0.546875,0.078125 0.546875,0.3125 V -0.5625 c 0,0.234375 -0.015625,0.3125 -0.546875,0.3125 H 0.390625 V 0 h 4.375 z m 0,0"
   transform="translate(183.469,112.485)"
   id="path12736"
   style="fill:#005eec;fill-opacity:1;stroke-width:132.831;stroke-dasharray:none" />
<path
   d="m 5.1875,-4.71875 c 0,-0.125 0,-0.1875 -0.09375,-0.1875 -0.03125,0 -0.0625,0 -0.125,0.09375 l -0.375,0.53125 c -0.28125,-0.296875 -0.765625,-0.625 -1.4375,-0.625 -1.46875,0 -2.671875,1.140625 -2.671875,2.515625 0,1.421875 1.234375,2.53125 2.671875,2.53125 1.234375,0 2.03125,-0.921875 2.03125,-1.765625 0,-0.078125 -0.015625,-0.140625 -0.125,-0.140625 -0.03125,0 -0.109375,0 -0.109375,0.09375 -0.0625,1.125 -1.015625,1.5625 -1.703125,1.5625 -0.734375,0 -2.015625,-0.453125 -2.015625,-2.265625 0,-1.890625 1.34375,-2.265625 2,-2.265625 0.703125,0 1.515625,0.453125 1.703125,1.65625 0.015625,0.078125 0.078125,0.078125 0.125,0.078125 0.125,0 0.125,-0.046875 0.125,-0.1875 z m 0,0"
   transform="translate(188.8179,112.485)"
   id="path12738"
   style="fill:#005eec;fill-opacity:1;stroke-width:132.831;stroke-dasharray:none" />
<path
   d="M 5.078125,-1.828125 H 4.84375 C 4.65625,-0.78125 4.5,-0.25 3.203125,-0.25 h -1.09375 c -0.328125,0 -0.34375,-0.0625 -0.34375,-0.265625 v -1.8125 H 2.46875 c 0.703125,0 0.8125,0.203125 0.8125,0.8125 H 3.515625 V -3.40625 H 3.28125 c 0,0.609375 -0.109375,0.828125 -0.8125,0.828125 H 1.765625 v -1.625 c 0,-0.21875 0.015625,-0.28125 0.34375,-0.28125 H 3.15625 c 1.140625,0 1.34375,0.375 1.46875,1.359375 h 0.234375 l -0.21875,-1.609375 h -4.25 v 0.25 H 0.5625 c 0.53125,0 0.546875,0.078125 0.546875,0.3125 V -0.5625 c 0,0.234375 -0.015625,0.3125 -0.546875,0.3125 H 0.390625 V 0 h 4.375 z m 0,0"
   transform="translate(194.50155,112.485)"
   id="path12740"
   style="fill:#005eec;fill-opacity:1;stroke-width:132.831;stroke-dasharray:none" />
<path
   d="m 4.546875,-4.734375 h -4.15625 v 0.25 H 0.5625 c 0.53125,0 0.546875,0.078125 0.546875,0.3125 V -0.5625 c 0,0.234375 -0.015625,0.3125 -0.546875,0.3125 H 0.390625 V 0 c 0,0 0.796875,-0.03125 1.0625,-0.03125 C 1.734375,-0.03125 2.5625,0 2.671875,0 v -0.25 h -0.25 c -0.65625,0 -0.65625,-0.09375 -0.65625,-0.328125 V -2.25 h 0.6875 c 0.6875,0 0.78125,0.21875 0.78125,0.828125 h 0.25 V -3.3125 h -0.25 c 0,0.609375 -0.09375,0.8125 -0.78125,0.8125 h -0.6875 v -1.703125 c 0,-0.21875 0.015625,-0.28125 0.34375,-0.28125 h 0.96875 c 1.125,0 1.3125,0.375 1.4375,1.359375 H 4.75 Z m 0,0"
   transform="translate(199.85046,112.485)"
   id="path12742"
   style="fill:#005eec;fill-opacity:1;stroke-width:132.831;stroke-dasharray:none" />
</g>
</g><g
       ns1:text="$z_{\mathrm{ECEF}}$"
       transform="matrix(0.62920203,0,0,0.62920203,24.636626,20.301821)"
       id="g12954"
       style="fill:#005eec;fill-opacity:1;stroke-width:125.939;stroke-dasharray:none"><g
   fill="#000000"
   fill-opacity="1"
   id="g12942"
   style="fill:#005eec;fill-opacity:1;stroke-width:125.939;stroke-dasharray:none">
<path
   d="m 1.328125,-0.828125 c 0.53125,-0.578125 0.828125,-0.828125 1.1875,-1.140625 0,0 0.609375,-0.53125 0.96875,-0.890625 C 4.4375,-3.78125 4.65625,-4.265625 4.65625,-4.3125 c 0,-0.09375 -0.09375,-0.09375 -0.109375,-0.09375 -0.078125,0 -0.09375,0.015625 -0.15625,0.109375 -0.296875,0.484375 -0.5,0.640625 -0.734375,0.640625 -0.25,0 -0.359375,-0.15625 -0.515625,-0.328125 -0.1875,-0.21875 -0.359375,-0.421875 -0.6875,-0.421875 -0.75,0 -1.203125,0.921875 -1.203125,1.140625 0,0.046875 0.03125,0.109375 0.109375,0.109375 0.09375,0 0.109375,-0.046875 0.140625,-0.109375 0.1875,-0.46875 0.765625,-0.46875 0.84375,-0.46875 0.203125,0 0.390625,0.0625 0.625,0.140625 0.40625,0.15625 0.515625,0.15625 0.765625,0.15625 -0.359375,0.421875 -1.1875,1.140625 -1.375,1.296875 l -0.90625,0.84375 C 0.78125,-0.625 0.421875,-0.0625 0.421875,0.015625 c 0,0.09375 0.109375,0.09375 0.125,0.09375 0.078125,0 0.09375,-0.015625 0.15625,-0.125 0.234375,-0.359375 0.53125,-0.625 0.859375,-0.625 0.21875,0 0.328125,0.09375 0.578125,0.375 0.15625,0.21875 0.34375,0.375 0.625,0.375 1,0 1.578125,-1.265625 1.578125,-1.53125 0,-0.046875 -0.046875,-0.109375 -0.125,-0.109375 -0.09375,0 -0.109375,0.0625 -0.140625,0.140625 C 3.84375,-0.75 3.203125,-0.5625 2.875,-0.5625 c -0.1875,0 -0.375,-0.0625 -0.578125,-0.125 -0.34375,-0.125 -0.5,-0.171875 -0.703125,-0.171875 -0.015625,0 -0.171875,0 -0.265625,0.03125 z m 0,0"
   transform="translate(178.585,110.99)"
   id="path12940"
   style="fill:#005eec;fill-opacity:1;stroke-width:125.939;stroke-dasharray:none" />
</g>
<g
   fill="#000000"
   fill-opacity="1"
   id="g12952"
   style="fill:#005eec;fill-opacity:1;stroke-width:125.939;stroke-dasharray:none">
<path
   d="M 5.078125,-1.828125 H 4.84375 C 4.65625,-0.78125 4.5,-0.25 3.203125,-0.25 h -1.09375 c -0.328125,0 -0.34375,-0.0625 -0.34375,-0.265625 v -1.8125 H 2.46875 c 0.703125,0 0.8125,0.203125 0.8125,0.8125 H 3.515625 V -3.40625 H 3.28125 c 0,0.609375 -0.109375,0.828125 -0.8125,0.828125 H 1.765625 v -1.625 c 0,-0.21875 0.015625,-0.28125 0.34375,-0.28125 H 3.15625 c 1.140625,0 1.34375,0.375 1.46875,1.359375 h 0.234375 l -0.21875,-1.609375 h -4.25 v 0.25 H 0.5625 c 0.53125,0 0.546875,0.078125 0.546875,0.3125 V -0.5625 c 0,0.234375 -0.015625,0.3125 -0.546875,0.3125 H 0.390625 V 0 h 4.375 z m 0,0"
   transform="translate(183.218,112.485)"
   id="path12944"
   style="fill:#005eec;fill-opacity:1;stroke-width:125.939;stroke-dasharray:none" />
<path
   d="m 5.1875,-4.71875 c 0,-0.125 0,-0.1875 -0.09375,-0.1875 -0.03125,0 -0.0625,0 -0.125,0.09375 l -0.375,0.53125 c -0.28125,-0.296875 -0.765625,-0.625 -1.4375,-0.625 -1.46875,0 -2.671875,1.140625 -2.671875,2.515625 0,1.421875 1.234375,2.53125 2.671875,2.53125 1.234375,0 2.03125,-0.921875 2.03125,-1.765625 0,-0.078125 -0.015625,-0.140625 -0.125,-0.140625 -0.03125,0 -0.109375,0 -0.109375,0.09375 -0.0625,1.125 -1.015625,1.5625 -1.703125,1.5625 -0.734375,0 -2.015625,-0.453125 -2.015625,-2.265625 0,-1.890625 1.34375,-2.265625 2,-2.265625 0.703125,0 1.515625,0.453125 1.703125,1.65625 0.015625,0.078125 0.078125,0.078125 0.125,0.078125 0.125,0 0.125,-0.046875 0.125,-0.1875 z m 0,0"
   transform="translate(188.5669,112.485)"
   id="path12946"
   style="fill:#005eec;fill-opacity:1;stroke-width:125.939;stroke-dasharray:none" />
<path
   d="M 5.078125,-1.828125 H 4.84375 C 4.65625,-0.78125 4.5,-0.25 3.203125,-0.25 h -1.09375 c -0.328125,0 -0.34375,-0.0625 -0.34375,-0.265625 v -1.8125 H 2.46875 c 0.703125,0 0.8125,0.203125 0.8125,0.8125 H 3.515625 V -3.40625 H 3.28125 c 0,0.609375 -0.109375,0.828125 -0.8125,0.828125 H 1.765625 v -1.625 c 0,-0.21875 0.015625,-0.28125 0.34375,-0.28125 H 3.15625 c 1.140625,0 1.34375,0.375 1.46875,1.359375 h 0.234375 l -0.21875,-1.609375 h -4.25 v 0.25 H 0.5625 c 0.53125,0 0.546875,0.078125 0.546875,0.3125 V -0.5625 c 0,0.234375 -0.015625,0.3125 -0.546875,0.3125 H 0.390625 V 0 h 4.375 z m 0,0"
   transform="translate(194.25055,112.485)"
   id="path12948"
   style="fill:#005eec;fill-opacity:1;stroke-width:125.939;stroke-dasharray:none" />
<path
   d="m 4.546875,-4.734375 h -4.15625 v 0.25 H 0.5625 c 0.53125,0 0.546875,0.078125 0.546875,0.3125 V -0.5625 c 0,0.234375 -0.015625,0.3125 -0.546875,0.3125 H 0.390625 V 0 c 0,0 0.796875,-0.03125 1.0625,-0.03125 C 1.734375,-0.03125 2.5625,0 2.671875,0 v -0.25 h -0.25 c -0.65625,0 -0.65625,-0.09375 -0.65625,-0.328125 V -2.25 h 0.6875 c 0.6875,0 0.78125,0.21875 0.78125,0.828125 h 0.25 V -3.3125 h -0.25 c 0,0.609375 -0.09375,0.8125 -0.78125,0.8125 h -0.6875 v -1.703125 c 0,-0.21875 0.015625,-0.28125 0.34375,-0.28125 h 0.96875 c 1.125,0 1.3125,0.375 1.4375,1.359375 H 4.75 Z m 0,0"
   transform="translate(199.59946,112.485)"
   id="path12950"
   style="fill:#005eec;fill-opacity:1;stroke-width:125.939;stroke-dasharray:none" />
</g>
</g><g
       ns1:text="$z_{\mathbf{PN}}$"
       transform="matrix(0.62883265,0,0,0.62883265,-3.1480213,22.410422)"
       id="g13174"
       style="fill:#008309;fill-opacity:1;stroke-width:0.638719;stroke-dasharray:none"><g
   fill="#000000"
   fill-opacity="1"
   id="g13166"
   style="fill:#008309;fill-opacity:1;stroke-width:0.638719;stroke-dasharray:none">
<path
   d="m 1.328125,-0.828125 c 0.53125,-0.578125 0.828125,-0.828125 1.1875,-1.140625 0,0 0.609375,-0.53125 0.96875,-0.890625 C 4.4375,-3.78125 4.65625,-4.265625 4.65625,-4.3125 c 0,-0.09375 -0.09375,-0.09375 -0.109375,-0.09375 -0.078125,0 -0.09375,0.015625 -0.15625,0.109375 -0.296875,0.484375 -0.5,0.640625 -0.734375,0.640625 -0.25,0 -0.359375,-0.15625 -0.515625,-0.328125 -0.1875,-0.21875 -0.359375,-0.421875 -0.6875,-0.421875 -0.75,0 -1.203125,0.921875 -1.203125,1.140625 0,0.046875 0.03125,0.109375 0.109375,0.109375 0.09375,0 0.109375,-0.046875 0.140625,-0.109375 0.1875,-0.46875 0.765625,-0.46875 0.84375,-0.46875 0.203125,0 0.390625,0.0625 0.625,0.140625 0.40625,0.15625 0.515625,0.15625 0.765625,0.15625 -0.359375,0.421875 -1.1875,1.140625 -1.375,1.296875 l -0.90625,0.84375 C 0.78125,-0.625 0.421875,-0.0625 0.421875,0.015625 c 0,0.09375 0.109375,0.09375 0.125,0.09375 0.078125,0 0.09375,-0.015625 0.15625,-0.125 0.234375,-0.359375 0.53125,-0.625 0.859375,-0.625 0.21875,0 0.328125,0.09375 0.578125,0.375 0.15625,0.21875 0.34375,0.375 0.625,0.375 1,0 1.578125,-1.265625 1.578125,-1.53125 0,-0.046875 -0.046875,-0.109375 -0.125,-0.109375 -0.09375,0 -0.109375,0.0625 -0.140625,0.140625 C 3.84375,-0.75 3.203125,-0.5625 2.875,-0.5625 c -0.1875,0 -0.375,-0.0625 -0.578125,-0.125 -0.34375,-0.125 -0.5,-0.171875 -0.703125,-0.171875 -0.015625,0 -0.171875,0 -0.265625,0.03125 z m 0,0"
   transform="translate(178.585,110.99)"
   id="path13164"
   style="fill:#008309;fill-opacity:1;stroke-width:0.638719;stroke-dasharray:none" />
</g>
<g
   fill="#000000"
   fill-opacity="1"
   id="g13172"
   style="fill:#008309;fill-opacity:1;stroke-width:0.638719;stroke-dasharray:none">
<path
   d="m 2.1875,-2.03125 h 1.359375 c 1.28125,0 2.046875,-0.59375 2.046875,-1.359375 0,-0.765625 -0.75,-1.390625 -2.046875,-1.390625 h -3.15625 v 0.390625 h 0.75 v 4 h -0.75 V 0 C 0.5625,-0.015625 1.546875,-0.03125 1.671875,-0.03125 1.8125,-0.03125 2.78125,-0.015625 2.9375,0 v -0.390625 h -0.75 z m 1.125,-2.359375 c 1.140625,0 1.140625,0.546875 1.140625,1 0,0.453125 0,1 -1.15625,1 h -1.15625 v -2 z m 0,0"
   transform="translate(183.218,112.485)"
   id="path13168"
   style="fill:#008309;fill-opacity:1;stroke-width:0.638719;stroke-dasharray:none" />
<path
   d="M 2.28125,-4.6875 C 2.1875,-4.78125 2.1875,-4.78125 2.03125,-4.78125 H 0.390625 v 0.390625 h 0.75 V -0.5625 c 0,0.109375 0,0.109375 -0.015625,0.125 -0.0625,0.046875 -0.421875,0.046875 -0.5,0.046875 H 0.390625 V 0 c 0.09375,0 0.734375,-0.03125 1,-0.03125 C 1.65625,-0.03125 2.328125,0 2.375,0 V -0.390625 H 2.140625 c -0.09375,0 -0.234375,0 -0.34375,-0.015625 C 1.640625,-0.421875 1.625,-0.421875 1.625,-0.5625 v -3.484375 l 3.734375,3.96875 C 5.421875,0 5.453125,0 5.59375,0 5.796875,0 5.828125,-0.03125 5.828125,-0.25 v -3.96875 c 0,-0.109375 0.015625,-0.109375 0.03125,-0.125 0.0625,-0.046875 0.40625,-0.046875 0.484375,-0.046875 H 6.578125 V -4.78125 c -0.09375,0 -0.71875,0.03125 -0.984375,0.03125 -0.265625,0 -0.9375,-0.03125 -1,-0.03125 v 0.390625 h 0.234375 c 0.109375,0 0.25,0 0.34375,0.015625 0.171875,0.015625 0.171875,0.015625 0.171875,0.15625 v 2.796875 z m 0,0"
   transform="translate(189.341,112.485)"
   id="path13170"
   style="fill:#008309;fill-opacity:1;stroke-width:0.638719;stroke-dasharray:none" />
</g>
</g><g
       ns1:text="$y_{\mathbf{PN}}$"
       transform="matrix(0.5732235,0,0,0.5732235,-4.7046425,81.00418)"
       id="g13404"
       style="fill:#008309;fill-opacity:1;stroke-width:0.638719;stroke-dasharray:none"><g
   fill="#000000"
   fill-opacity="1"
   id="g13396"
   style="fill:#008309;fill-opacity:1;stroke-width:0.638719;stroke-dasharray:none">
<path
   d="m 4.84375,-3.796875 c 0.046875,-0.140625 0.046875,-0.15625 0.046875,-0.234375 0,-0.171875 -0.140625,-0.265625 -0.296875,-0.265625 -0.09375,0 -0.25,0.0625 -0.34375,0.203125 -0.015625,0.0625 -0.109375,0.359375 -0.140625,0.546875 -0.078125,0.25 -0.140625,0.53125 -0.203125,0.796875 l -0.453125,1.796875 c -0.03125,0.140625 -0.46875,0.84375 -1.125,0.84375 -0.5,0 -0.609375,-0.4375 -0.609375,-0.8125 C 1.71875,-1.375 1.890625,-2 2.21875,-2.875 2.375,-3.28125 2.421875,-3.390625 2.421875,-3.59375 c 0,-0.4375 -0.3125,-0.8125 -0.8125,-0.8125 -0.953125,0 -1.3125,1.453125 -1.3125,1.53125 0,0.109375 0.09375,0.109375 0.109375,0.109375 0.109375,0 0.109375,-0.03125 0.15625,-0.1875 0.28125,-0.9375 0.671875,-1.234375 1.015625,-1.234375 0.078125,0 0.25,0 0.25,0.3125 0,0.25 -0.109375,0.515625 -0.171875,0.703125 -0.40625,1.0625 -0.578125,1.625 -0.578125,2.09375 0,0.890625 0.625,1.1875 1.21875,1.1875 0.390625,0 0.71875,-0.171875 1,-0.453125 -0.125,0.515625 -0.25,1.015625 -0.640625,1.546875 -0.265625,0.328125 -0.640625,0.625 -1.09375,0.625 -0.140625,0 -0.59375,-0.03125 -0.765625,-0.421875 0.15625,0 0.296875,0 0.421875,-0.125 C 1.328125,1.203125 1.421875,1.0625 1.421875,0.875 1.421875,0.5625 1.15625,0.53125 1.0625,0.53125 0.828125,0.53125 0.5,0.6875 0.5,1.171875 c 0,0.5 0.4375,0.875 1.0625,0.875 1.015625,0 2.046875,-0.90625 2.328125,-2.03125 z m 0,0"
   transform="translate(178.585,110.99)"
   id="path13394"
   style="fill:#008309;fill-opacity:1;stroke-width:0.638719;stroke-dasharray:none" />
</g>
<g
   fill="#000000"
   fill-opacity="1"
   id="g13402"
   style="fill:#008309;fill-opacity:1;stroke-width:0.638719;stroke-dasharray:none">
<path
   d="m 2.1875,-2.03125 h 1.359375 c 1.28125,0 2.046875,-0.59375 2.046875,-1.359375 0,-0.765625 -0.75,-1.390625 -2.046875,-1.390625 h -3.15625 v 0.390625 h 0.75 v 4 h -0.75 V 0 C 0.5625,-0.015625 1.546875,-0.03125 1.671875,-0.03125 1.8125,-0.03125 2.78125,-0.015625 2.9375,0 v -0.390625 h -0.75 z m 1.125,-2.359375 c 1.140625,0 1.140625,0.546875 1.140625,1 0,0.453125 0,1 -1.15625,1 h -1.15625 v -2 z m 0,0"
   transform="translate(183.469,112.485)"
   id="path13398"
   style="fill:#008309;fill-opacity:1;stroke-width:0.638719;stroke-dasharray:none" />
<path
   d="M 2.28125,-4.6875 C 2.1875,-4.78125 2.1875,-4.78125 2.03125,-4.78125 H 0.390625 v 0.390625 h 0.75 V -0.5625 c 0,0.109375 0,0.109375 -0.015625,0.125 -0.0625,0.046875 -0.421875,0.046875 -0.5,0.046875 H 0.390625 V 0 c 0.09375,0 0.734375,-0.03125 1,-0.03125 C 1.65625,-0.03125 2.328125,0 2.375,0 V -0.390625 H 2.140625 c -0.09375,0 -0.234375,0 -0.34375,-0.015625 C 1.640625,-0.421875 1.625,-0.421875 1.625,-0.5625 v -3.484375 l 3.734375,3.96875 C 5.421875,0 5.453125,0 5.59375,0 5.796875,0 5.828125,-0.03125 5.828125,-0.25 v -3.96875 c 0,-0.109375 0.015625,-0.109375 0.03125,-0.125 0.0625,-0.046875 0.40625,-0.046875 0.484375,-0.046875 H 6.578125 V -4.78125 c -0.09375,0 -0.71875,0.03125 -0.984375,0.03125 -0.265625,0 -0.9375,-0.03125 -1,-0.03125 v 0.390625 h 0.234375 c 0.109375,0 0.25,0 0.34375,0.015625 0.171875,0.015625 0.171875,0.015625 0.171875,0.15625 v 2.796875 z m 0,0"
   transform="translate(189.592,112.485)"
   id="path13400"
   style="fill:#008309;fill-opacity:1;stroke-width:0.638719;stroke-dasharray:none" />
</g>
</g><g
       ns1:text="$x_{\mathbf{PN}}$"
       transform="matrix(0.6067673,0.02646397,-0.02646397,0.6067673,38.400932,54.074559)"
       id="g13646"
       style="fill:#008309;fill-opacity:1;stroke-width:0.638719;stroke-dasharray:none"><g
   fill="#000000"
   fill-opacity="1"
   id="g13638"
   style="fill:#008309;fill-opacity:1;stroke-width:0.638719;stroke-dasharray:none">
<path
   d="M 3.328125,-3.015625 C 3.390625,-3.265625 3.625,-4.1875 4.3125,-4.1875 c 0.046875,0 0.296875,0 0.5,0.125 C 4.53125,-4 4.34375,-3.765625 4.34375,-3.515625 c 0,0.15625 0.109375,0.34375 0.375,0.34375 0.21875,0 0.53125,-0.171875 0.53125,-0.578125 0,-0.515625 -0.578125,-0.65625 -0.921875,-0.65625 -0.578125,0 -0.921875,0.53125 -1.046875,0.75 -0.25,-0.65625 -0.78125,-0.75 -1.078125,-0.75 -1.03125,0 -1.609375,1.28125 -1.609375,1.53125 0,0.109375 0.109375,0.109375 0.125,0.109375 0.078125,0 0.109375,-0.03125 0.125,-0.109375 0.34375,-1.0625 1,-1.3125 1.34375,-1.3125 0.1875,0 0.53125,0.09375 0.53125,0.671875 0,0.3125 -0.171875,0.96875 -0.53125,2.375 -0.15625,0.609375 -0.515625,1.03125 -0.953125,1.03125 -0.0625,0 -0.28125,0 -0.5,-0.125 0.25,-0.0625 0.46875,-0.265625 0.46875,-0.546875 0,-0.265625 -0.21875,-0.34375 -0.359375,-0.34375 -0.3125,0 -0.546875,0.25 -0.546875,0.578125 0,0.453125 0.484375,0.65625 0.921875,0.65625 0.671875,0 1.03125,-0.703125 1.046875,-0.75 0.125,0.359375 0.484375,0.75 1.078125,0.75 1.03125,0 1.59375,-1.28125 1.59375,-1.53125 0,-0.109375 -0.078125,-0.109375 -0.109375,-0.109375 -0.09375,0 -0.109375,0.046875 -0.140625,0.109375 -0.328125,1.078125 -1,1.3125 -1.3125,1.3125 -0.390625,0 -0.546875,-0.3125 -0.546875,-0.65625 0,-0.21875 0.046875,-0.4375 0.15625,-0.875 z m 0,0"
   transform="translate(178.585,110.99)"
   id="path13636"
   style="fill:#008309;fill-opacity:1;stroke-width:0.638719;stroke-dasharray:none" />
</g>
<g
   fill="#000000"
   fill-opacity="1"
   id="g13644"
   style="fill:#008309;fill-opacity:1;stroke-width:0.638719;stroke-dasharray:none">
<path
   d="m 2.1875,-2.03125 h 1.359375 c 1.28125,0 2.046875,-0.59375 2.046875,-1.359375 0,-0.765625 -0.75,-1.390625 -2.046875,-1.390625 h -3.15625 v 0.390625 h 0.75 v 4 h -0.75 V 0 C 0.5625,-0.015625 1.546875,-0.03125 1.671875,-0.03125 1.8125,-0.03125 2.78125,-0.015625 2.9375,0 v -0.390625 h -0.75 z m 1.125,-2.359375 c 1.140625,0 1.140625,0.546875 1.140625,1 0,0.453125 0,1 -1.15625,1 h -1.15625 v -2 z m 0,0"
   transform="translate(184.278,112.485)"
   id="path13640"
   style="fill:#008309;fill-opacity:1;stroke-width:0.638719;stroke-dasharray:none" />
<path
   d="M 2.28125,-4.6875 C 2.1875,-4.78125 2.1875,-4.78125 2.03125,-4.78125 H 0.390625 v 0.390625 h 0.75 V -0.5625 c 0,0.109375 0,0.109375 -0.015625,0.125 -0.0625,0.046875 -0.421875,0.046875 -0.5,0.046875 H 0.390625 V 0 c 0.09375,0 0.734375,-0.03125 1,-0.03125 C 1.65625,-0.03125 2.328125,0 2.375,0 V -0.390625 H 2.140625 c -0.09375,0 -0.234375,0 -0.34375,-0.015625 C 1.640625,-0.421875 1.625,-0.421875 1.625,-0.5625 v -3.484375 l 3.734375,3.96875 C 5.421875,0 5.453125,0 5.59375,0 5.796875,0 5.828125,-0.03125 5.828125,-0.25 v -3.96875 c 0,-0.109375 0.015625,-0.109375 0.03125,-0.125 0.0625,-0.046875 0.40625,-0.046875 0.484375,-0.046875 H 6.578125 V -4.78125 c -0.09375,0 -0.71875,0.03125 -0.984375,0.03125 -0.265625,0 -0.9375,-0.03125 -1,-0.03125 v 0.390625 h 0.234375 c 0.109375,0 0.25,0 0.34375,0.015625 0.171875,0.015625 0.171875,0.015625 0.171875,0.15625 v 2.796875 z m 0,0"
   transform="translate(190.401,112.485)"
   id="path13642"
   style="fill:#008309;fill-opacity:1;stroke-width:0.638719;stroke-dasharray:none" />
</g>
</g><g
       ns1:text="GAST"
       transform="matrix(0.49121227,-0.06842884,0.06842884,0.49121227,17.899957,114.1423)"
       id="g14863"
       style="stroke-width:0.638719;stroke-dasharray:none"><g
   fill="#000000"
   fill-opacity="1"
   id="g14861"
   style="stroke-width:0.638719;stroke-dasharray:none">
<path
   d="m 7.328125,-2.40625 v -0.3125 l -1.21875,0.03125 c -0.390625,0 -1.25,0 -1.609375,-0.03125 v 0.3125 H 4.828125 C 5.71875,-2.40625 5.75,-2.296875 5.75,-1.9375 v 0.640625 c 0,1.125 -1.265625,1.203125 -1.546875,1.203125 -0.640625,0 -2.625,-0.34375 -2.625,-3.3125 0,-2.984375 1.96875,-3.3125 2.5625,-3.3125 1.078125,0 1.984375,0.890625 2.171875,2.359375 0.03125,0.140625 0.03125,0.171875 0.171875,0.171875 0.15625,0 0.15625,-0.03125 0.15625,-0.234375 V -6.78125 c 0,-0.171875 0,-0.25 -0.109375,-0.25 -0.046875,0 -0.078125,0 -0.15625,0.125 l -0.5,0.734375 C 5.546875,-6.484375 5.015625,-7.03125 4.03125,-7.03125 c -1.859375,0 -3.46875,1.578125 -3.46875,3.625 0,2.046875 1.59375,3.625 3.484375,3.625 0.734375,0 1.53125,-0.265625 1.859375,-0.84375 0.140625,0.21875 0.53125,0.609375 0.640625,0.609375 0.09375,0 0.09375,-0.078125 0.09375,-0.21875 V -1.96875 c 0,-0.390625 0.03125,-0.4375 0.6875,-0.4375 z m 0,0"
   transform="translate(178.585,110.99)"
   id="path14853"
   style="stroke-width:0.638719;stroke-dasharray:none" />
<path
   d="M 7.140625,0 V -0.3125 H 6.96875 C 6.375,-0.3125 6.234375,-0.375 6.125,-0.703125 L 3.96875,-6.9375 c -0.046875,-0.125 -0.078125,-0.203125 -0.234375,-0.203125 -0.15625,0 -0.1875,0.0625 -0.234375,0.203125 L 1.4375,-0.984375 C 1.25,-0.46875 0.859375,-0.3125 0.3125,-0.3125 V 0 L 1.328125,-0.03125 2.484375,0 v -0.3125 c -0.5,0 -0.75,-0.25 -0.75,-0.5 0,-0.03125 0.015625,-0.140625 0.015625,-0.15625 L 2.21875,-2.265625 H 4.671875 L 5.203125,-0.75 c 0.015625,0.046875 0.03125,0.109375 0.03125,0.140625 0,0.296875 -0.5625,0.296875 -0.828125,0.296875 V 0 c 0.359375,-0.03125 1.0625,-0.03125 1.4375,-0.03125 z M 4.5625,-2.578125 H 2.328125 l 1.109375,-3.25 z m 0,0"
   transform="translate(186.40564,110.99)"
   id="path14855"
   style="stroke-width:0.638719;stroke-dasharray:none" />
<path
   d="m 4.96875,-1.859375 c 0,-0.984375 -0.65625,-1.8125 -1.484375,-2.015625 l -1.28125,-0.296875 c -0.625,-0.15625 -1,-0.6875 -1,-1.265625 0,-0.703125 0.53125,-1.3125 1.3125,-1.3125 1.65625,0 1.875,1.640625 1.9375,2.078125 0.015625,0.0625 0.015625,0.125 0.125,0.125 0.125,0 0.125,-0.046875 0.125,-0.234375 v -2 c 0,-0.171875 0,-0.25 -0.109375,-0.25 -0.0625,0 -0.078125,0.015625 -0.140625,0.140625 l -0.359375,0.5625 C 3.796875,-6.625 3.390625,-7.03125 2.5,-7.03125 c -1.109375,0 -1.9375,0.875 -1.9375,1.9375 0,0.828125 0.53125,1.5625 1.296875,1.828125 0.109375,0.03125 0.625,0.15625 1.328125,0.328125 0.265625,0.0625 0.5625,0.140625 0.84375,0.5 0.203125,0.265625 0.3125,0.59375 0.3125,0.921875 0,0.703125 -0.5,1.421875 -1.34375,1.421875 -0.28125,0 -1.046875,-0.046875 -1.578125,-0.53125 C 0.84375,-1.171875 0.8125,-1.796875 0.8125,-2.15625 0.796875,-2.265625 0.71875,-2.265625 0.6875,-2.265625 c -0.125,0 -0.125,0.078125 -0.125,0.25 v 2 c 0,0.171875 0,0.234375 0.109375,0.234375 0.0625,0 0.078125,-0.015625 0.140625,-0.125 0,0 0.03125,-0.046875 0.359375,-0.578125 0.3125,0.34375 0.953125,0.703125 1.84375,0.703125 1.15625,0 1.953125,-0.96875 1.953125,-2.078125 z m 0,0"
   transform="translate(193.87759,110.99)"
   id="path14857"
   style="stroke-width:0.638719;stroke-dasharray:none" />
<path
   d="m 6.828125,-4.5 -0.1875,-2.25 h -6.09375 l -0.1875,2.25 h 0.25 C 0.75,-6.109375 0.890625,-6.4375 2.40625,-6.4375 c 0.171875,0 0.4375,0 0.53125,0.015625 0.21875,0.046875 0.21875,0.15625 0.21875,0.375 v 5.265625 c 0,0.328125 0,0.46875 -1.046875,0.46875 H 1.703125 V 0 C 2.109375,-0.03125 3.125,-0.03125 3.59375,-0.03125 c 0.453125,0 1.484375,0 1.890625,0.03125 v -0.3125 h -0.40625 c -1.046875,0 -1.046875,-0.140625 -1.046875,-0.46875 v -5.265625 c 0,-0.1875 0,-0.328125 0.1875,-0.375 0.109375,-0.015625 0.375,-0.015625 0.5625,-0.015625 1.515625,0 1.65625,0.328125 1.796875,1.9375 z m 0,0"
   transform="translate(199.4168,110.99)"
   id="path14859"
   style="stroke-width:0.638719;stroke-dasharray:none" />
</g>
</g><g
       ns1:text="$x_p$"
       transform="matrix(0.52079767,0,0,0.52079767,79.141844,60.824382)"
       id="g15169"
       style="stroke-width:0.638719;stroke-dasharray:none"><g
   fill="#000000"
   fill-opacity="1"
   id="g15163"
   style="stroke-width:0.638719;stroke-dasharray:none">
<path
   d="M 3.328125,-3.015625 C 3.390625,-3.265625 3.625,-4.1875 4.3125,-4.1875 c 0.046875,0 0.296875,0 0.5,0.125 C 4.53125,-4 4.34375,-3.765625 4.34375,-3.515625 c 0,0.15625 0.109375,0.34375 0.375,0.34375 0.21875,0 0.53125,-0.171875 0.53125,-0.578125 0,-0.515625 -0.578125,-0.65625 -0.921875,-0.65625 -0.578125,0 -0.921875,0.53125 -1.046875,0.75 -0.25,-0.65625 -0.78125,-0.75 -1.078125,-0.75 -1.03125,0 -1.609375,1.28125 -1.609375,1.53125 0,0.109375 0.109375,0.109375 0.125,0.109375 0.078125,0 0.109375,-0.03125 0.125,-0.109375 0.34375,-1.0625 1,-1.3125 1.34375,-1.3125 0.1875,0 0.53125,0.09375 0.53125,0.671875 0,0.3125 -0.171875,0.96875 -0.53125,2.375 -0.15625,0.609375 -0.515625,1.03125 -0.953125,1.03125 -0.0625,0 -0.28125,0 -0.5,-0.125 0.25,-0.0625 0.46875,-0.265625 0.46875,-0.546875 0,-0.265625 -0.21875,-0.34375 -0.359375,-0.34375 -0.3125,0 -0.546875,0.25 -0.546875,0.578125 0,0.453125 0.484375,0.65625 0.921875,0.65625 0.671875,0 1.03125,-0.703125 1.046875,-0.75 0.125,0.359375 0.484375,0.75 1.078125,0.75 1.03125,0 1.59375,-1.28125 1.59375,-1.53125 0,-0.109375 -0.078125,-0.109375 -0.109375,-0.109375 -0.09375,0 -0.109375,0.046875 -0.140625,0.109375 -0.328125,1.078125 -1,1.3125 -1.3125,1.3125 -0.390625,0 -0.546875,-0.3125 -0.546875,-0.65625 0,-0.21875 0.046875,-0.4375 0.15625,-0.875 z m 0,0"
   transform="translate(178.585,110.99)"
   id="path15161"
   style="stroke-width:0.638719;stroke-dasharray:none" />
</g>
<g
   fill="#000000"
   fill-opacity="1"
   id="g15167"
   style="stroke-width:0.638719;stroke-dasharray:none">
<path
   d="m 0.515625,0.84375 c -0.046875,0.203125 -0.0625,0.25 -0.328125,0.25 -0.09375,0 -0.1875,0 -0.1875,0.15625 0,0.078125 0.0625,0.109375 0.09375,0.109375 0.171875,0 0.40625,-0.03125 0.59375,-0.03125 0.234375,0 0.5,0.03125 0.734375,0.03125 0.0625,0 0.140625,-0.03125 0.140625,-0.15625 0,-0.109375 -0.09375,-0.109375 -0.1875,-0.109375 -0.15625,0 -0.34375,0 -0.34375,-0.078125 0,-0.03125 0.0625,-0.21875 0.078125,-0.3125 0.09375,-0.375 0.1875,-0.75 0.265625,-1.046875 0.078125,0.140625 0.296875,0.40625 0.71875,0.40625 0.84375,0 1.78125,-0.9375 1.78125,-1.96875 0,-0.8125 -0.5625,-1.171875 -1.03125,-1.171875 -0.4375,0 -0.8125,0.296875 -1,0.5 -0.109375,-0.40625 -0.5,-0.5 -0.71875,-0.5 -0.265625,0 -0.4375,0.1875 -0.546875,0.375 -0.140625,0.234375 -0.25,0.65625 -0.25,0.703125 0,0.078125 0.09375,0.078125 0.125,0.078125 0.09375,0 0.09375,-0.015625 0.140625,-0.203125 0.109375,-0.40625 0.25,-0.75 0.515625,-0.75 0.1875,0 0.234375,0.15625 0.234375,0.34375 0,0.078125 -0.015625,0.15625 -0.03125,0.203125 z M 1.84375,-2.234375 C 2.25,-2.78125 2.59375,-2.875 2.8125,-2.875 c 0.28125,0 0.515625,0.203125 0.515625,0.671875 0,0.28125 -0.15625,1 -0.359375,1.40625 -0.1875,0.34375 -0.515625,0.671875 -0.875,0.671875 -0.5,0 -0.625,-0.53125 -0.625,-0.609375 0,-0.03125 0.015625,-0.078125 0.015625,-0.109375 z m 0,0"
   transform="translate(184.278,112.485)"
   id="path15165"
   style="stroke-width:0.638719;stroke-dasharray:none" />
</g>
</g><g
       ns1:text="$y_p$"
       transform="matrix(0.5518007,0,0,0.5518007,17.090068,83.030213)"
       id="g15484"
       style="stroke-width:0.638719;stroke-dasharray:none"><g
   fill="#000000"
   fill-opacity="1"
   id="g15478"
   style="stroke-width:0.638719;stroke-dasharray:none">
<path
   d="m 4.84375,-3.796875 c 0.046875,-0.140625 0.046875,-0.15625 0.046875,-0.234375 0,-0.171875 -0.140625,-0.265625 -0.296875,-0.265625 -0.09375,0 -0.25,0.0625 -0.34375,0.203125 -0.015625,0.0625 -0.109375,0.359375 -0.140625,0.546875 -0.078125,0.25 -0.140625,0.53125 -0.203125,0.796875 l -0.453125,1.796875 c -0.03125,0.140625 -0.46875,0.84375 -1.125,0.84375 -0.5,0 -0.609375,-0.4375 -0.609375,-0.8125 C 1.71875,-1.375 1.890625,-2 2.21875,-2.875 2.375,-3.28125 2.421875,-3.390625 2.421875,-3.59375 c 0,-0.4375 -0.3125,-0.8125 -0.8125,-0.8125 -0.953125,0 -1.3125,1.453125 -1.3125,1.53125 0,0.109375 0.09375,0.109375 0.109375,0.109375 0.109375,0 0.109375,-0.03125 0.15625,-0.1875 0.28125,-0.9375 0.671875,-1.234375 1.015625,-1.234375 0.078125,0 0.25,0 0.25,0.3125 0,0.25 -0.109375,0.515625 -0.171875,0.703125 -0.40625,1.0625 -0.578125,1.625 -0.578125,2.09375 0,0.890625 0.625,1.1875 1.21875,1.1875 0.390625,0 0.71875,-0.171875 1,-0.453125 -0.125,0.515625 -0.25,1.015625 -0.640625,1.546875 -0.265625,0.328125 -0.640625,0.625 -1.09375,0.625 -0.140625,0 -0.59375,-0.03125 -0.765625,-0.421875 0.15625,0 0.296875,0 0.421875,-0.125 C 1.328125,1.203125 1.421875,1.0625 1.421875,0.875 1.421875,0.5625 1.15625,0.53125 1.0625,0.53125 0.828125,0.53125 0.5,0.6875 0.5,1.171875 c 0,0.5 0.4375,0.875 1.0625,0.875 1.015625,0 2.046875,-0.90625 2.328125,-2.03125 z m 0,0"
   transform="translate(178.585,110.99)"
   id="path15476"
   style="stroke-width:0.638719;stroke-dasharray:none" />
</g>
<g
   fill="#000000"
   fill-opacity="1"
   id="g15482"
   style="stroke-width:0.638719;stroke-dasharray:none">
<path
   d="m 0.515625,0.84375 c -0.046875,0.203125 -0.0625,0.25 -0.328125,0.25 -0.09375,0 -0.1875,0 -0.1875,0.15625 0,0.078125 0.0625,0.109375 0.09375,0.109375 0.171875,0 0.40625,-0.03125 0.59375,-0.03125 0.234375,0 0.5,0.03125 0.734375,0.03125 0.0625,0 0.140625,-0.03125 0.140625,-0.15625 0,-0.109375 -0.09375,-0.109375 -0.1875,-0.109375 -0.15625,0 -0.34375,0 -0.34375,-0.078125 0,-0.03125 0.0625,-0.21875 0.078125,-0.3125 0.09375,-0.375 0.1875,-0.75 0.265625,-1.046875 0.078125,0.140625 0.296875,0.40625 0.71875,0.40625 0.84375,0 1.78125,-0.9375 1.78125,-1.96875 0,-0.8125 -0.5625,-1.171875 -1.03125,-1.171875 -0.4375,0 -0.8125,0.296875 -1,0.5 -0.109375,-0.40625 -0.5,-0.5 -0.71875,-0.5 -0.265625,0 -0.4375,0.1875 -0.546875,0.375 -0.140625,0.234375 -0.25,0.65625 -0.25,0.703125 0,0.078125 0.09375,0.078125 0.125,0.078125 0.09375,0 0.09375,-0.015625 0.140625,-0.203125 0.109375,-0.40625 0.25,-0.75 0.515625,-0.75 0.1875,0 0.234375,0.15625 0.234375,0.34375 0,0.078125 -0.015625,0.15625 -0.03125,0.203125 z M 1.84375,-2.234375 C 2.25,-2.78125 2.59375,-2.875 2.8125,-2.875 c 0.28125,0 0.515625,0.203125 0.515625,0.671875 0,0.28125 -0.15625,1 -0.359375,1.40625 -0.1875,0.34375 -0.515625,0.671875 -0.875,0.671875 -0.5,0 -0.625,-0.53125 -0.625,-0.609375 0,-0.03125 0.015625,-0.078125 0.015625,-0.109375 z m 0,0"
   transform="translate(183.469,112.485)"
   id="path15480"
   style="stroke-width:0.638719;stroke-dasharray:none" />
</g>
</g></g></svg>
