<?xml version="1.0" encoding="UTF-8" standalone="no"?>
<!-- Created with Inkscape (http://www.inkscape.org/) -->

<svg
   version="1.1"
   id="svg570"
   width="939.64008"
   height="353"
   viewBox="0 0 939.64008 353"
   sodipodi:docname="uab.svg"
   inkscape:export-filename="uab-2.pdf"
   inkscape:export-xdpi="96"
   inkscape:export-ydpi="96"
   inkscape:version="1.2.2 (b0a8486541, 2022-12-01)"
   xmlns:inkscape="http://www.inkscape.org/namespaces/inkscape"
   xmlns:sodipodi="http://sodipodi.sourceforge.net/DTD/sodipodi-0.dtd"
   xmlns="http://www.w3.org/2000/svg"
   xmlns:svg="http://www.w3.org/2000/svg">
  <defs
     id="defs574" />
  <sodipodi:namedview
     id="namedview572"
     pagecolor="#ffffff"
     bordercolor="#999999"
     borderopacity="1"
     inkscape:showpageshadow="0"
     inkscape:pageopacity="0"
     inkscape:pagecheckerboard="0"
     inkscape:deskcolor="#d1d1d1"
     showgrid="false"
     inkscape:zoom="0.66855524"
     inkscape:cx="354.49576"
     inkscape:cy="187.71822"
     inkscape:window-width="1920"
     inkscape:window-height="1080"
     inkscape:window-x="0"
     inkscape:window-y="0"
     inkscape:window-maximized="1"
     inkscape:current-layer="g578">
    <inkscape:page
       x="0"
       y="0"
       id="page576"
       width="939.64008"
       height="353" />
  </sodipodi:namedview>
  <g
     id="g578"
     inkscape:groupmode="layer"
     inkscape:label="Page 1"
     transform="matrix(1.3333333,0,0,1.3333333,0,8.825e-6)">
    <g
       id="g580">
      <path
         d="m 3.988,149.895 h 9.934 v 25.8 c 0,8.422 3.199,10.582 9.598,10.582 6.398,0 9.601,-2.152 9.601,-10.582 v -25.8 h 9.863 v 27.171 c 0,11.305 -6.468,17.313 -19.464,17.313 -12.997,0 -19.532,-5.949 -19.532,-17.313 z"
         style="fill:#008c3c;fill-opacity:1;fill-rule:nonzero;stroke:none"
         id="path582" />
      <path
         d="m 83.805,173.281 v 20.055 h -9.668 v -18.547 c 0,-5.23 -2.219,-7.312 -6.203,-7.312 -5.161,0 -8.032,3.261 -8.032,11.039 v 14.828 H 50.234 V 160.68 h 9.668 v 6.406 c 2.094,-4.441 5.813,-7.449 11.762,-7.449 8.555,0 12.148,5.093 12.148,13.652"
         style="fill:#008c3c;fill-opacity:1;fill-rule:nonzero;stroke:none"
         id="path584" />
      <path
         d="m 90.586,149.895 h 10.516 v 6.464 H 90.586 Z m 0.457,10.777 h 9.668 v 32.664 h -9.668 z"
         style="fill:#008c3c;fill-opacity:1;fill-rule:nonzero;stroke:none"
         id="path586" />
      <path
         d="m 141.531,160.672 -11.359,32.664 h -13.594 l -11.359,-32.664 h 9.859 l 8.621,25.156 8.625,-25.156 z"
         style="fill:#008c3c;fill-opacity:1;fill-rule:nonzero;stroke:none"
         id="path588" />
      <path
         d="m 168.047,183.473 h 9.277 c -0.918,5.226 -5.094,10.914 -16.855,10.914 -12.742,0 -17.571,-8.239 -17.571,-17.438 0,-9.203 5.489,-17.312 17.571,-17.312 12.082,0 16.922,8.035 16.922,17.242 0,0.976 0,1.891 -0.137,2.609 h -24.883 c 0.582,6.203 3.66,8.231 8.293,8.231 4.246,0 6.465,-1.832 7.383,-4.246 m -15.609,-9.864 h 15.742 c -0.321,-4.964 -2.746,-7.445 -7.575,-7.445 -4.832,0 -7.378,1.895 -8.167,7.445"
         style="fill:#008c3c;fill-opacity:1;fill-rule:nonzero;stroke:none"
         id="path590" />
      <path
         d="m 204.613,160.156 v 9.403 h -3.199 c -6.465,0 -8.687,3.527 -8.687,10.906 v 12.871 h -9.668 v -32.664 h 9.406 v 6.992 c 1.566,-4.637 4.508,-7.508 9.996,-7.508 z"
         style="fill:#008c3c;fill-opacity:1;fill-rule:nonzero;stroke:none"
         id="path592" />
      <path
         d="m 216.047,182.684 c 0.262,3.136 2.609,5.617 7.512,5.617 4.375,0 5.882,-1.5 5.882,-3.785 0,-1.957 -0.918,-3.399 -4.578,-3.856 l -7.316,-0.914 c -6.145,-0.781 -9.473,-4.051 -9.473,-9.535 0,-7.25 6.141,-10.649 14.824,-10.649 8.688,0 14.77,3.465 15.356,10.649 h -8.949 c -0.328,-2.676 -2.356,-4.566 -6.407,-4.566 -4.046,0 -5.878,1.566 -5.878,3.66 0,1.636 0.847,2.941 4.117,3.332 l 6.855,0.785 c 7.77,0.984 10.711,4.312 10.711,10.125 0,6.406 -4.051,10.844 -15.285,10.844 -11.234,0 -16.004,-5.489 -16.199,-11.692 h 8.82 z"
         style="fill:#008c3c;fill-opacity:1;fill-rule:nonzero;stroke:none"
         id="path594" />
      <path
         d="m 244.32,149.895 h 10.516 v 6.464 H 244.32 Z m 0.457,10.777 h 9.668 v 32.664 h -9.668 z"
         style="fill:#008c3c;fill-opacity:1;fill-rule:nonzero;stroke:none"
         id="path596" />
      <path
         d="m 264.824,181.574 v -13.59 h -5.937 v -4.632 l 6.726,-2.747 3.981,-7.71 h 4.898 v 7.769 h 9.406 v 7.313 h -9.406 v 17.64 h 8.492 v 7.711 h -6.144 c -9.278,0 -12.016,-3.984 -12.016,-11.762"
         style="fill:#008c3c;fill-opacity:1;fill-rule:nonzero;stroke:none"
         id="path598" />
      <path
         d="m 288.074,184.648 c 0,-5.226 2.289,-8.625 10.711,-10.054 l 7.711,-1.305 c 3.008,-0.527 4.051,-1.375 4.051,-3.273 0,-2.286 -1.309,-3.786 -5.688,-3.786 -4.379,0 -6.531,1.762 -6.66,5.094 h -9.472 c 0.261,-6.992 6.007,-11.762 15.937,-11.762 9.93,0 14.77,4.247 14.77,11.168 v 14.106 c 0,3.078 0.195,5.687 0.515,8.492 h -8.422 c -0.328,-2.152 -0.523,-4.312 -0.523,-6.992 -1.5,4.508 -5.426,7.84 -12.082,7.84 -6.66,0 -10.848,-3.66 -10.848,-9.539 m 22.473,-6.856 v -1.441 c -1.703,1.176 -3.332,1.637 -5.356,2.094 l -2.746,0.652 c -3.465,0.848 -4.836,2.09 -4.836,4.574 0,2.61 1.957,3.922 4.575,3.922 5.089,0 8.363,-3.719 8.363,-9.793"
         style="fill:#008c3c;fill-opacity:1;fill-rule:nonzero;stroke:none"
         id="path600" />
      <path
         d="m 329.348,181.574 v -13.59 h -5.95 v -4.632 l 6.731,-2.747 3.98,-7.71 h 4.899 v 7.769 h 9.406 v 7.313 h -9.406 v 17.64 h 8.488 v 7.711 h -6.141 c -9.277,0 -12.023,-3.984 -12.023,-11.762"
         style="fill:#008c3c;fill-opacity:1;fill-rule:nonzero;stroke:none"
         id="path602" />
      <path
         d="m 401.844,184.453 h -19.465 l -3.133,8.883 h -10 l 15.285,-43.441 h 15.16 l 15.286,43.441 h -10 z m -2.68,-7.641 -7.055,-20.054 -7.058,20.054 z"
         style="fill:#008c3c;fill-opacity:1;fill-rule:nonzero;stroke:none"
         id="path604" />
      <path
         d="m 452.266,160.672 v 32.664 h -9.668 v -6.27 c -2.024,4.379 -5.684,7.321 -11.567,7.321 -8.554,0 -12.343,-5.16 -12.343,-13.719 V 160.68 h 9.667 v 18.547 c 0,5.16 2.286,7.253 6.407,7.253 4.828,0 7.836,-3.593 7.836,-10.972 V 160.68 h 9.668 z"
         style="fill:#008c3c;fill-opacity:1;fill-rule:nonzero;stroke:none"
         id="path606" />
      <path
         d="m 462.703,181.574 v -13.59 h -5.945 v -4.632 l 6.726,-2.747 3.985,-7.71 h 4.894 v 7.769 h 9.407 v 7.313 h -9.407 v 17.64 h 8.492 v 7.711 h -6.144 c -9.277,0 -12.012,-3.984 -12.012,-11.762"
         style="fill:#008c3c;fill-opacity:1;fill-rule:nonzero;stroke:none"
         id="path608" />
      <path
         d="m 484.844,176.941 c 0,-9.015 5.094,-17.312 18.09,-17.312 13,0 18.097,8.363 18.097,17.312 0,8.946 -5.031,17.438 -18.097,17.438 -13.063,0 -18.09,-8.297 -18.09,-17.438 m 10.847,-28.156 16.528,5.684 -0.785,2.551 -17.633,-2.094 z m 7.25,38.016 c 5.95,0 8.422,-2.547 8.422,-9.793 0,-7.246 -2.48,-9.797 -8.422,-9.797 -5.937,0 -8.363,2.551 -8.363,9.797 0,7.246 2.484,9.793 8.363,9.793"
         style="fill:#008c3c;fill-opacity:1;fill-rule:nonzero;stroke:none"
         id="path610" />
      <path
         d="m 560.406,173.281 v 20.055 h -9.668 v -18.547 c 0,-5.23 -2.218,-7.312 -6.199,-7.312 -5.16,0 -8.035,3.261 -8.035,11.039 v 14.828 h -9.668 V 160.68 h 9.668 v 6.406 c 2.094,-4.441 5.812,-7.449 11.762,-7.449 8.558,0 12.148,5.093 12.148,13.652"
         style="fill:#008c3c;fill-opacity:1;fill-rule:nonzero;stroke:none"
         id="path612" />
      <path
         d="m 565.762,176.941 c 0,-9.015 5.093,-17.312 18.09,-17.312 13,0 18.089,8.363 18.089,17.312 0,8.946 -5.031,17.438 -18.089,17.438 -13.055,0 -18.09,-8.297 -18.09,-17.438 m 18.09,9.86 c 5.941,0 8.421,-2.547 8.421,-9.793 0,-7.246 -2.48,-9.797 -8.421,-9.797 -5.938,0 -8.364,2.551 -8.364,9.797 0,7.246 2.485,9.793 8.364,9.793"
         style="fill:#008c3c;fill-opacity:1;fill-rule:nonzero;stroke:none"
         id="path614" />
      <path
         d="m 663.082,173.281 v 20.055 h -9.668 v -18.684 c 0,-4.898 -1.957,-7.183 -5.879,-7.183 -4.898,0 -7.379,3.261 -7.379,11.039 v 14.828 h -9.472 v -18.684 c 0,-4.898 -1.957,-7.183 -5.883,-7.183 -4.895,0 -7.379,3.261 -7.379,11.039 v 14.828 h -9.668 v -32.664 h 9.668 v 5.941 c 1.957,-4.179 5.492,-6.992 11.168,-6.992 5.676,0 9.336,2.746 10.777,7.578 1.957,-4.508 5.551,-7.578 11.692,-7.578 8.296,0 12.023,5.094 12.023,13.652"
         style="fill:#008c3c;fill-opacity:1;fill-rule:nonzero;stroke:none"
         id="path616" />
      <path
         d="m 669.336,184.648 c 0,-5.226 2.289,-8.625 10.711,-10.054 l 7.711,-1.305 c 3.008,-0.527 4.051,-1.375 4.051,-3.273 0,-2.286 -1.305,-3.786 -5.688,-3.786 -4.379,0 -6.531,1.762 -6.66,5.094 h -9.473 c 0.266,-6.992 6.008,-11.762 15.938,-11.762 9.933,0 14.762,4.247 14.762,11.168 v 14.106 c 0,3.078 0.195,5.687 0.523,8.492 h -8.43 c -0.32,-2.152 -0.523,-4.312 -0.523,-6.992 -1.5,4.508 -5.422,7.84 -12.082,7.84 -6.66,0 -10.848,-3.66 -10.848,-9.539 m 22.473,-6.856 v -1.441 c -1.696,1.176 -3.332,1.637 -5.356,2.094 l -2.746,0.652 c -3.465,0.848 -4.828,2.09 -4.828,4.574 0,2.61 1.957,3.922 4.574,3.922 5.094,0 8.364,-3.719 8.364,-9.793"
         style="fill:#008c3c;fill-opacity:1;fill-rule:nonzero;stroke:none"
         id="path618" />
      <path
         d="m 181.238,216.504 v 45.719 h -9.668 v -4.836 c -2.289,3.726 -6.074,5.879 -11.691,5.879 -10.652,0 -15.024,-7.965 -15.024,-17.438 0,-9.473 4.372,-17.312 15.024,-17.312 5.617,0 9.402,2.222 11.691,5.949 v -17.961 z m -9.668,29.391 c 0,-6.661 -2.609,-9.793 -8.683,-9.793 -6.078,0 -8.364,3 -8.364,9.793 0,6.796 2.219,9.796 8.364,9.796 6.14,0 8.683,-3.136 8.683,-9.796"
         style="fill:#008c3c;fill-opacity:1;fill-rule:nonzero;stroke:none"
         id="path620" />
      <path
         d="m 211.738,252.359 h 9.278 c -0.914,5.227 -5.09,10.907 -16.852,10.907 -12.742,0 -17.57,-8.227 -17.57,-17.438 0,-9.211 5.488,-17.312 17.57,-17.312 12.082,0 16.922,8.035 16.922,17.246 0,0.98 0,1.894 -0.137,2.609 h -24.883 c 0.582,6.203 3.661,8.227 8.293,8.227 4.246,0 6.465,-1.832 7.379,-4.246 m -15.605,-9.864 h 15.742 c -0.324,-4.965 -2.746,-7.445 -7.574,-7.445 -4.832,0 -7.379,1.898 -8.168,7.445"
         style="fill:#008c3c;fill-opacity:1;fill-rule:nonzero;stroke:none"
         id="path622" />
      <path
         d="m 280.703,250.402 c 0,7.313 -4.769,11.821 -14.039,11.821 h -23.777 v -43.442 h 24.234 c 9.277,0 12.996,4.832 12.996,10.711 0,6.406 -3.98,9.278 -8.945,10.32 5.422,0.848 9.531,3.661 9.531,10.583 m -27.894,-24.106 v 10.387 h 11.043 c 4.312,0 5.878,-2.09 5.878,-5.227 0,-3.328 -1.441,-5.16 -5.55,-5.16 z m 17.574,22.734 c 0,-3.464 -1.762,-5.687 -6.531,-5.687 h -11.043 v 11.305 h 11.625 c 4.441,0 5.949,-2.414 5.949,-5.618"
         style="fill:#008c3c;fill-opacity:1;fill-rule:nonzero;stroke:none"
         id="path624" />
      <path
         d="m 286.508,253.539 c 0,-5.23 2.289,-8.625 10.711,-10.059 l 7.707,-1.304 c 3,-0.528 4.051,-1.375 4.051,-3.27 0,-2.289 -1.305,-3.789 -5.684,-3.789 -4.379,0 -6.531,1.762 -6.66,5.094 h -9.473 c 0.262,-6.992 6.008,-11.762 15.938,-11.762 9.929,0 14.761,4.246 14.761,11.168 v 14.11 c 0,3.066 0.192,5.683 0.524,8.488 h -8.43 c -0.324,-2.153 -0.519,-4.313 -0.519,-6.988 -1.508,4.507 -5.422,7.835 -12.082,7.835 -6.661,0 -10.844,-3.66 -10.844,-9.539 m 22.469,-6.855 v -1.441 c -1.696,1.179 -3.329,1.636 -5.356,2.093 l -2.742,0.653 c -3.465,0.847 -4.832,2.093 -4.832,4.574 0,2.609 1.957,3.922 4.566,3.922 5.094,0 8.364,-3.719 8.364,-9.793"
         style="fill:#008c3c;fill-opacity:1;fill-rule:nonzero;stroke:none"
         id="path626" />
      <path
         d="m 347.836,229.043 v 9.406 h -3.203 c -6.465,0 -8.684,3.524 -8.684,10.903 v 12.871 h -9.668 v -32.664 h 9.403 v 6.992 c 1.57,-4.637 4.507,-7.508 9.992,-7.508 z"
         style="fill:#008c3c;fill-opacity:1;fill-rule:nonzero;stroke:none"
         id="path628" />
      <path
         d="m 368.535,228.516 c 11.301,0 16.852,6.273 17.113,14.304 h -9.402 c -0.332,-4.05 -2.551,-6.726 -7.516,-6.726 -5.226,0 -8.363,2.48 -8.363,9.793 0,7.312 3.008,9.797 8.227,9.797 5.222,0 7.449,-3 7.84,-6.922 h 9.402 c -0.195,7.64 -5.617,14.496 -17.113,14.496 -12.735,0 -18.098,-8.227 -18.098,-17.379 0,-9.149 5.227,-17.375 17.902,-17.375"
         style="fill:#008c3c;fill-opacity:1;fill-rule:nonzero;stroke:none"
         id="path630" />
      <path
         d="m 415.102,252.359 h 9.277 c -0.914,5.227 -5.09,10.907 -16.852,10.907 -12.734,0 -17.574,-8.227 -17.574,-17.438 0,-9.211 5.492,-17.312 17.574,-17.312 12.082,0 16.922,8.035 16.922,17.246 0,0.98 0,1.894 -0.129,2.609 h -24.886 c 0.586,6.203 3.66,8.227 8.296,8.227 4.247,0 6.465,-1.832 7.379,-4.246 m -15.605,-9.864 h 15.742 c -0.324,-4.965 -2.746,-7.445 -7.574,-7.445 -4.832,0 -7.383,1.898 -8.168,7.445"
         style="fill:#008c3c;fill-opacity:1;fill-rule:nonzero;stroke:none"
         id="path632" />
      <path
         d="m 429.988,216.504 h 9.668 v 45.719 h -9.668 z"
         style="fill:#008c3c;fill-opacity:1;fill-rule:nonzero;stroke:none"
         id="path634" />
      <path
         d="m 445.461,245.828 c 0,-9.016 5.094,-17.312 18.09,-17.312 13,0 18.09,8.363 18.09,17.312 0,8.945 -5.032,17.438 -18.09,17.438 -13.055,0 -18.09,-8.297 -18.09,-17.438 m 18.09,9.863 c 5.941,0 8.426,-2.55 8.426,-9.796 0,-7.247 -2.485,-9.793 -8.426,-9.793 -5.938,0 -8.36,2.546 -8.36,9.793 0,7.246 2.481,9.796 8.36,9.796"
         style="fill:#008c3c;fill-opacity:1;fill-rule:nonzero;stroke:none"
         id="path636" />
      <path
         d="m 521.031,242.168 v 20.055 h -9.668 v -18.547 c 0,-5.227 -2.218,-7.321 -6.199,-7.321 -5.16,0 -8.035,3.262 -8.035,11.04 v 14.828 h -9.668 v -32.664 h 9.668 v 6.406 c 2.094,-4.442 5.812,-7.449 11.762,-7.449 8.558,0 12.148,5.093 12.148,13.652"
         style="fill:#008c3c;fill-opacity:1;fill-rule:nonzero;stroke:none"
         id="path638" />
      <path
         d="m 527.297,253.539 c 0,-5.23 2.285,-8.625 10.707,-10.059 l 7.711,-1.304 c 3.008,-0.528 4.051,-1.375 4.051,-3.27 0,-2.289 -1.305,-3.789 -5.688,-3.789 -4.379,0 -6.531,1.762 -6.656,5.094 h -9.473 c 0.262,-6.992 6.004,-11.762 15.938,-11.762 9.929,0 14.758,4.246 14.758,11.168 v 14.11 c 0,3.066 0.195,5.683 0.527,8.488 h -8.434 c -0.32,-2.153 -0.523,-4.313 -0.523,-6.988 -1.5,4.507 -5.422,7.835 -12.082,7.835 -6.66,0 -10.844,-3.66 -10.844,-9.539 m 22.469,-6.855 v -1.441 c -1.703,1.179 -3.332,1.636 -5.356,2.093 l -2.746,0.653 c -3.465,0.847 -4.828,2.093 -4.828,4.574 0,2.609 1.957,3.922 4.574,3.922 5.094,0 8.364,-3.719 8.364,-9.793"
         style="fill:#008c3c;fill-opacity:1;fill-rule:nonzero;stroke:none"
         id="path640" />
      <path
         d="m 181.637,1.531 h 25.672 v 66.711 c 0,21.789 8.277,27.36 24.824,27.36 16.543,0 24.824,-5.571 24.824,-27.36 V 1.531 h 25.5 v 70.25 c 0,29.223 -16.719,44.762 -50.324,44.762 -33.61,0 -50.496,-15.367 -50.496,-44.762 z"
         style="fill:#008c3c;fill-opacity:1;fill-rule:nonzero;stroke:none"
         id="path642" />
      <path
         d="m 523.574,83.273 c 0,18.915 -12.328,30.571 -36.308,30.571 H 425.789 V 1.531 h 62.656 c 23.985,0 33.606,12.492 33.606,27.696 0,16.554 -10.305,23.984 -23.137,26.687 14.02,2.195 24.66,9.457 24.66,27.359 m -72.113,-62.32 v 26.852 h 28.547 c 11.144,0 15.203,-5.407 15.203,-13.516 0,-8.609 -3.715,-13.34 -14.356,-13.34 h -29.386 z m 45.43,58.781 c 0,-8.949 -4.563,-14.695 -16.891,-14.695 h -28.547 v 29.223 h 30.063 c 11.48,0 15.367,-6.25 15.367,-14.528"
         style="fill:#008c3c;fill-opacity:1;fill-rule:nonzero;stroke:none"
         id="path644" />
      <path
         d="m 371.176,1.5 h -36.18 l -44.738,112.328 h 25.246 c 0.359,-0.969 0.867,-2.332 1.234,-3.219 2.059,-4.941 5.168,-9.074 8.973,-12.644 6.23,-5.863 13.836,-8.356 21.703,-9 5.332,-0.434 11.574,-0.547 16.938,-0.563 h 16.5 l 9.785,25.426 h 25.261 z m -8.828,67.223 c -0.676,0 -1.313,0 -1.907,0.015 -13.312,0.121 -24.246,3.254 -34.812,18.668 l 27.457,-68.176 19.926,49.485 c -0.309,0 -10.672,0 -10.672,0"
         style="fill:#008c3c;fill-opacity:1;fill-rule:evenodd;stroke:none"
         id="path646" />
    </g>
  </g>
</svg>
