<?xml version="1.0" encoding="UTF-8" standalone="no"?>
<!-- Created with Inkscape (http://www.inkscape.org/) -->

<svg
   version="1.1"
   id="svg2810"
   width="1122.52"
   height="793.70667"
   viewBox="0 0 1122.52 793.70667"
   sodipodi:docname="uab.svg"
   inkscape:version="1.2.2 (b0a8486541, 2022-12-01)"
   inkscape:export-filename="uab.pdf"
   inkscape:export-xdpi="96"
   inkscape:export-ydpi="96"
   xmlns:inkscape="http://www.inkscape.org/namespaces/inkscape"
   xmlns:sodipodi="http://sodipodi.sourceforge.net/DTD/sodipodi-0.dtd"
   xmlns="http://www.w3.org/2000/svg"
   xmlns:svg="http://www.w3.org/2000/svg">
  <defs
     id="defs2814" />
  <sodipodi:namedview
     id="namedview2812"
     pagecolor="#ffffff"
     bordercolor="#999999"
     borderopacity="1"
     inkscape:showpageshadow="0"
     inkscape:pageopacity="0"
     inkscape:pagecheckerboard="0"
     inkscape:deskcolor="#d1d1d1"
     showgrid="false"
     inkscape:zoom="0.84100189"
     inkscape:cx="368.60797"
     inkscape:cy="537.4542"
     inkscape:window-width="2048"
     inkscape:window-height="1251"
     inkscape:window-x="0"
     inkscape:window-y="0"
     inkscape:window-maximized="1"
     inkscape:current-layer="g2818">
    <inkscape:page
       x="0"
       y="0"
       id="page2816"
       width="1122.52"
       height="793.70667" />
  </sodipodi:namedview>
  <g
     id="g2818"
     inkscape:groupmode="layer"
     inkscape:label="Page 1"
     transform="matrix(1.3333333,0,0,-1.3333333,0,793.70667)">
    <g
       id="g3262"
       transform="matrix(3.706604,0,0,3.706604,-1145.4563,-789.86165)">
      <path
         d="m 398.411,336.619 h -8.851 v -20.756 c 0,-4.73 -1.731,-6.713 -5.747,-6.713 -4.274,0 -6.106,2.033 -6.106,6.763 v 20.706 h -8.853 v -20.095 c 0,-4.12 0.409,-6.359 1.578,-8.496 2.241,-4.12 6.612,-6.103 13.229,-6.103 4.985,0 8.441,1.018 10.987,3.357 1.527,1.473 2.594,3.308 3.203,5.441 0.408,1.578 0.56,3.056 0.56,5.749 z m 52.441,-19.125 h 6.765 c 3.61,0 5.238,-1.221 5.238,-3.922 0,-2.643 -1.577,-3.863 -5.034,-3.863 h -6.969 z m 0,12.409 h 6.102 c 3.204,0 4.628,-1.017 4.628,-3.357 0,-2.086 -1.577,-3.255 -4.423,-3.205 h -6.307 z m -8.856,6.716 v -33.881 h 17.348 c 4.119,0 6.817,0.713 8.957,2.493 2.337,1.834 3.508,4.425 3.508,7.63 0,4.072 -1.833,6.818 -5.495,8.192 l -0.559,0.206 c 2.95,1.522 4.425,3.811 4.425,6.866 0,3.15 -1.627,5.846 -4.376,7.219 -1.727,0.865 -4.018,1.275 -7.528,1.275"
         style="fill:#1d1d1b;fill-opacity:1;fill-rule:nonzero;stroke:none;stroke-width:0.1"
         id="path2888" />
      <path
         d="m 423.722,333.881 c 0,0 1.018,-9.577 0.801,-10.522 0,0 -0.221,-2.319 3.264,-10.666 3.483,-8.346 1.234,-2.613 4.137,-9.216 l 1.304,-1.888 1.309,10.45 c 0.212,3.772 0.146,9.943 0.146,9.943 0.215,0.147 1.013,10.375 0.868,11.173 -0.145,0.799 -0.071,3.558 -0.071,3.558 -10.668,0.435 -13.063,-0.435 -13.063,-0.435 -7.837,0.507 -16.618,0.507 -16.618,0.507 -0.506,-1.816 -0.798,-4.5 -0.724,-5.369 0.071,-0.873 0.218,-2.178 0.071,-4.425 -0.145,-2.252 0.361,-8.782 0.361,-8.782 l -0.506,0.142 c 0.364,-6.166 -0.144,-15.599 -0.144,-15.599 h 7.11 c 0.363,0.434 7.401,17.561 7.401,17.561 2.542,5.223 4.354,13.568 4.354,13.568 m -5.659,-17.85 6.528,1.524 1.309,-1.234 -0.725,-2.321"
         style="fill:#a85623;fill-opacity:1;fill-rule:nonzero;stroke:none;stroke-width:0.1"
         id="path2890" />
      <path
         d="m 342.127,282.796 c 0,-3.341 -1.974,-4.968 -5.28,-4.968 -3.324,0 -5.263,1.61 -5.263,4.968 v 7.686 h 2.719 v -7.686 c 0,-1.351 0.345,-2.683 2.544,-2.683 1.938,0 2.562,0.847 2.562,2.683 v 7.686 h 2.718"
         style="fill:#1d1d1b;fill-opacity:1;fill-rule:nonzero;stroke:none;stroke-width:0.1"
         id="path2892" />
      <path
         d="m 344.203,287.071 h 2.337 v -1.246 h 0.052 c 0.623,1.004 1.696,1.489 2.735,1.489 2.615,0 3.272,-1.472 3.272,-3.687 v -5.505 h -2.459 v 5.054 c 0,1.471 -0.432,2.199 -1.575,2.199 -1.333,0 -1.903,-0.744 -1.903,-2.562 v -4.691 h -2.459"
         style="fill:#1d1d1b;fill-opacity:1;fill-rule:nonzero;stroke:none;stroke-width:0.1"
         id="path2894" />
      <path
         d="m 354.71,287.071 h 2.45781 v -8.94922 H 354.71 Z m 2.458,1.385 h -2.45781 v 2.025 h 2.45781 z"
         style="fill:#1d1d1b;fill-opacity:1;fill-rule:nonzero;stroke:none;stroke-width:0.1"
         id="path2896" />
      <path
         d="m 364.144,278.122 h -2.735 l -3.063,8.949 h 2.578 l 1.887,-6.111 h 0.035 l 1.886,6.111 h 2.441"
         style="fill:#1d1d1b;fill-opacity:1;fill-rule:nonzero;stroke:none;stroke-width:0.1"
         id="path2898" />
      <path
         d="m 373.871,283.557 c -0.223,1.247 -0.76,1.905 -1.955,1.905 -1.558,0 -2.008,-1.211 -2.043,-1.905 z m -3.998,-1.559 c 0.07,-1.556 0.832,-2.266 2.2,-2.266 0.985,0 1.782,0.606 1.938,1.16 h 2.164 c -0.693,-2.112 -2.164,-3.012 -4.189,-3.012 -2.822,0 -4.572,1.939 -4.572,4.708 0,2.683 1.854,4.726 4.572,4.726 3.047,0 4.518,-2.563 4.344,-5.316"
         style="fill:#1d1d1b;fill-opacity:1;fill-rule:nonzero;stroke:none;stroke-width:0.1"
         id="path2900" />
      <path
         d="m 377.783,287.071 h 2.336 v -1.661 h 0.036 c 0.45,1.125 1.661,1.904 2.857,1.904 0.173,0 0.38,-0.035 0.536,-0.087 v -2.285 c -0.225,0.052 -0.589,0.087 -0.883,0.087 -1.8,0 -2.423,-1.299 -2.423,-2.874 v -4.033 h -2.459"
         style="fill:#1d1d1b;fill-opacity:1;fill-rule:nonzero;stroke:none;stroke-width:0.1"
         id="path2902" />
      <path
         d="m 386.507,281.03 c 0.018,-1.073 0.918,-1.506 1.888,-1.506 0.71,0 1.609,0.277 1.609,1.142 0,0.745 -1.021,1.005 -2.787,1.385 -1.419,0.312 -2.839,0.814 -2.839,2.388 0,2.285 1.974,2.875 3.896,2.875 1.955,0 3.756,-0.658 3.946,-2.856 h -2.337 c -0.069,0.952 -0.796,1.212 -1.678,1.212 -0.555,0 -1.368,-0.105 -1.368,-0.832 0,-0.882 1.385,-1.003 2.787,-1.332 1.437,-0.33 2.839,-0.848 2.839,-2.511 0,-2.355 -2.043,-3.115 -4.086,-3.115 -2.077,0 -4.102,0.779 -4.206,3.15"
         style="fill:#1d1d1b;fill-opacity:1;fill-rule:nonzero;stroke:none;stroke-width:0.1"
         id="path2904" />
      <path
         d="m 394.054,287.071 h 2.4582 v -8.94922 h -2.4582 z m 2.458,1.385 h -2.4582 v 2.025 h 2.4582 z"
         style="fill:#1d1d1b;fill-opacity:1;fill-rule:nonzero;stroke:none;stroke-width:0.1"
         id="path2906" />
      <path
         d="m 401.914,287.071 h 1.799 v -1.645 h -1.799 v -4.431 c 0,-0.83 0.207,-1.038 1.038,-1.038 0.26,0 0.503,0.017 0.761,0.069 v -1.922 c -0.413,-0.069 -0.951,-0.086 -1.435,-0.086 -1.508,0 -2.823,0.346 -2.823,2.128 v 5.28 h -1.488 v 1.645 h 1.488 v 2.684 h 2.459"
         style="fill:#1d1d1b;fill-opacity:1;fill-rule:nonzero;stroke:none;stroke-width:0.1"
         id="path2908" />
      <path
         d="m 410.898,282.502 c -0.417,-0.364 -1.282,-0.382 -2.044,-0.52 -0.761,-0.156 -1.454,-0.416 -1.454,-1.316 0,-0.917 0.71,-1.142 1.506,-1.142 1.922,0 1.992,1.523 1.992,2.06 z m -5.679,1.817 c 0.138,2.303 2.199,2.995 4.207,2.995 1.782,0 3.929,-0.398 3.929,-2.544 v -4.657 c 0,-0.813 0.086,-1.628 0.312,-1.991 h -2.493 c -0.087,0.276 -0.156,0.571 -0.173,0.865 -0.779,-0.813 -1.92,-1.107 -3.013,-1.107 -1.695,0 -3.047,0.848 -3.047,2.682 0,2.026 1.525,2.51 3.047,2.718 1.507,0.226 2.91,0.174 2.91,1.178 0,1.056 -0.728,1.212 -1.594,1.212 -0.934,0 -1.54,-0.382 -1.627,-1.351"
         style="fill:#1d1d1b;fill-opacity:1;fill-rule:nonzero;stroke:none;stroke-width:0.1"
         id="path2910" />
      <path
         d="m 418.288,287.071 h 1.8 v -1.645 h -1.8 v -4.431 c 0,-0.83 0.208,-1.038 1.039,-1.038 0.259,0 0.501,0.017 0.761,0.069 v -1.922 c -0.415,-0.069 -0.951,-0.086 -1.437,-0.086 -1.506,0 -2.821,0.346 -2.821,2.128 v 5.28 h -1.489 v 1.645 h 1.489 v 2.684 h 2.458"
         style="fill:#1d1d1b;fill-opacity:1;fill-rule:nonzero;stroke:none;stroke-width:0.1"
         id="path2912" />
      <path
         d="m 429.366,282.9 h 3.202 l -1.557,4.536 h -0.036 z m 0.26,7.581 h 2.787 l 4.622,-12.359 h -2.821 l -0.936,2.752 h -4.621 l -0.97,-2.752 h -2.753"
         style="fill:#1d1d1b;fill-opacity:1;fill-rule:nonzero;stroke:none;stroke-width:0.1"
         id="path2914" />
      <path
         d="m 446.157,278.122 h -2.338 v 1.246 h -0.051 c -0.622,-1.004 -1.697,-1.488 -2.734,-1.488 -2.615,0 -3.273,1.471 -3.273,3.686 v 5.505 h 2.458 v -5.053 c 0,-1.473 0.433,-2.2 1.576,-2.2 1.333,0 1.903,0.743 1.903,2.562 v 4.691 h 2.459"
         style="fill:#1d1d1b;fill-opacity:1;fill-rule:nonzero;stroke:none;stroke-width:0.1"
         id="path2916" />
      <path
         d="m 451.574,287.071 h 1.801 v -1.645 h -1.801 v -4.431 c 0,-0.83 0.207,-1.038 1.038,-1.038 0.26,0 0.504,0.017 0.763,0.069 v -1.922 c -0.416,-0.069 -0.951,-0.086 -1.438,-0.086 -1.506,0 -2.821,0.346 -2.821,2.128 v 5.28 h -1.489 v 1.645 h 1.489 v 2.684 h 2.458"
         style="fill:#1d1d1b;fill-opacity:1;fill-rule:nonzero;stroke:none;stroke-width:0.1"
         id="path2918" />
      <path
         d="m 459.157,279.731 c 1.678,0 2.18,1.437 2.18,2.857 0,1.437 -0.502,2.873 -2.18,2.873 -1.664,0 -2.166,-1.436 -2.166,-2.873 0,-1.42 0.502,-2.857 2.166,-2.857 m -3.065,10.907 h 2.717 l 1.662,-2.458 h -1.713 z m 3.065,-3.324 c 2.819,0 4.638,-1.871 4.638,-4.726 0,-2.838 -1.819,-4.709 -4.638,-4.709 -2.806,0 -4.623,1.871 -4.623,4.709 0,2.855 1.817,4.726 4.623,4.726"
         style="fill:#1d1d1b;fill-opacity:1;fill-rule:nonzero;stroke:none;stroke-width:0.1"
         id="path2920" />
      <path
         d="m 465.214,287.071 h 2.336 v -1.246 h 0.053 c 0.623,1.004 1.696,1.489 2.735,1.489 2.615,0 3.272,-1.472 3.272,-3.687 v -5.505 h -2.459 v 5.054 c 0,1.471 -0.432,2.199 -1.575,2.199 -1.333,0 -1.902,-0.744 -1.902,-2.562 v -4.691 h -2.46"
         style="fill:#1d1d1b;fill-opacity:1;fill-rule:nonzero;stroke:none;stroke-width:0.1"
         id="path2922" />
      <path
         d="m 479.65,279.731 c 1.679,0 2.184,1.437 2.184,2.857 0,1.437 -0.505,2.873 -2.184,2.873 -1.662,0 -2.164,-1.436 -2.164,-2.873 0,-1.42 0.502,-2.857 2.164,-2.857 m 0,7.583 c 2.822,0 4.64,-1.871 4.64,-4.726 0,-2.838 -1.818,-4.709 -4.64,-4.709 -2.805,0 -4.621,1.871 -4.621,4.709 0,2.855 1.816,4.726 4.621,4.726"
         style="fill:#1d1d1b;fill-opacity:1;fill-rule:nonzero;stroke:none;stroke-width:0.1"
         id="path2924" />
      <path
         d="m 485.777,287.071 h 2.319 v -1.211 h 0.036 c 0.64,0.917 1.575,1.454 2.734,1.454 1.126,0 2.13,-0.416 2.615,-1.489 0.519,0.779 1.453,1.489 2.7,1.489 1.905,0 3.273,-0.884 3.273,-3.203 v -5.989 h -2.459 v 5.072 c 0,1.194 -0.105,2.181 -1.506,2.181 -1.386,0 -1.645,-1.142 -1.645,-2.268 v -4.985 h -2.458 v 5.02 c 0,1.038 0.07,2.233 -1.488,2.233 -0.485,0 -1.66,-0.312 -1.66,-2.06 v -5.193 h -2.461"
         style="fill:#1d1d1b;fill-opacity:1;fill-rule:nonzero;stroke:none;stroke-width:0.1"
         id="path2926" />
      <path
         d="m 506.791,282.502 c -0.414,-0.364 -1.28,-0.382 -2.042,-0.52 -0.762,-0.156 -1.454,-0.416 -1.454,-1.316 0,-0.917 0.71,-1.142 1.507,-1.142 1.922,0 1.989,1.523 1.989,2.06 z m -5.677,1.817 c 0.138,2.303 2.198,2.995 4.206,2.995 1.784,0 3.93,-0.398 3.93,-2.544 v -4.657 c 0,-0.813 0.087,-1.628 0.312,-1.991 h -2.494 c -0.087,0.276 -0.155,0.571 -0.173,0.865 -0.778,-0.813 -1.92,-1.107 -3.01,-1.107 -1.698,0 -3.048,0.848 -3.048,2.682 0,2.026 1.523,2.51 3.048,2.718 1.505,0.226 2.906,0.174 2.906,1.178 0,1.056 -0.726,1.212 -1.592,1.212 -0.934,0 -1.541,-0.382 -1.628,-1.351"
         style="fill:#1d1d1b;fill-opacity:1;fill-rule:nonzero;stroke:none;stroke-width:0.1"
         id="path2928" />
      <path
         d="m 371.146,264.906 c -1.608,0 -2.164,-1.385 -2.164,-2.856 0,-1.402 0.641,-2.873 2.164,-2.873 1.627,0 2.111,1.419 2.111,2.89 0,1.454 -0.518,2.839 -2.111,2.839 m 2.145,-6.197 h -0.034 c -0.571,-0.97 -1.573,-1.385 -2.718,-1.385 -2.7,0 -4.016,2.319 -4.016,4.795 0,2.406 1.334,4.64 3.966,4.64 1.054,0 2.093,-0.451 2.665,-1.333 h -0.018 0.035 v 4.5 h 2.458 v -12.36 h -2.338"
         style="fill:#1d1d1b;fill-opacity:1;fill-rule:nonzero;stroke:none;stroke-width:0.1"
         id="path2930" />
      <path
         d="m 383.677,263.002 c -0.224,1.247 -0.761,1.904 -1.956,1.904 -1.556,0 -2.008,-1.212 -2.042,-1.904 z m -3.998,-1.559 c 0.07,-1.557 0.831,-2.266 2.199,-2.266 0.987,0 1.782,0.605 1.939,1.16 h 2.163 c -0.692,-2.112 -2.163,-3.013 -4.189,-3.013 -2.822,0 -4.571,1.94 -4.571,4.708 0,2.684 1.853,4.727 4.571,4.727 3.047,0 4.518,-2.562 4.345,-5.316"
         style="fill:#1d1d1b;fill-opacity:1;fill-rule:nonzero;stroke:none;stroke-width:0.1"
         id="path2932" />
      <path
         d="m 394.254,259.678 h 2.907 c 1.075,0 2.009,0.347 2.009,1.627 0,1.265 -0.796,1.767 -1.957,1.767 h -2.959 z m 0,5.246 h 2.752 c 0.953,0 1.662,0.432 1.662,1.471 0,1.178 -0.9,1.42 -1.87,1.42 h -2.544 z m -2.718,5.002 h 5.816 c 2.357,0 3.947,-0.761 3.947,-3.063 0,-1.212 -0.606,-2.06 -1.679,-2.58 1.507,-0.432 2.268,-1.592 2.268,-3.133 0,-2.51 -2.129,-3.583 -4.363,-3.583 h -5.989"
         style="fill:#1d1d1b;fill-opacity:1;fill-rule:nonzero;stroke:none;stroke-width:0.1"
         id="path2934" />
      <path
         d="m 409.123,261.946 c -0.416,-0.364 -1.282,-0.381 -2.043,-0.52 -0.761,-0.156 -1.453,-0.415 -1.453,-1.315 0,-0.918 0.71,-1.143 1.508,-1.143 1.919,0 1.988,1.524 1.988,2.06 z m -5.677,1.817 c 0.136,2.303 2.198,2.995 4.205,2.995 1.784,0 3.929,-0.398 3.929,-2.544 v -4.657 c 0,-0.814 0.088,-1.628 0.313,-1.991 H 409.4 c -0.086,0.276 -0.155,0.571 -0.173,0.865 -0.779,-0.813 -1.922,-1.107 -3.013,-1.107 -1.695,0 -3.045,0.848 -3.045,2.684 0,2.024 1.524,2.509 3.045,2.717 1.507,0.225 2.909,0.173 2.909,1.177 0,1.057 -0.727,1.212 -1.591,1.212 -0.936,0 -1.543,-0.381 -1.628,-1.351"
         style="fill:#1d1d1b;fill-opacity:1;fill-rule:nonzero;stroke:none;stroke-width:0.1"
         id="path2936" />
      <path
         d="m 413.658,266.517 h 2.336 v -1.662 h 0.035 c 0.45,1.125 1.663,1.904 2.858,1.904 0.172,0 0.38,-0.036 0.535,-0.088 v -2.283 c -0.225,0.051 -0.588,0.085 -0.882,0.085 -1.8,0 -2.424,-1.298 -2.424,-2.873 v -4.033 h -2.458"
         style="fill:#1d1d1b;fill-opacity:1;fill-rule:nonzero;stroke:none;stroke-width:0.1"
         id="path2938" />
      <path
         d="m 426.432,263.366 c -0.156,1.003 -0.796,1.54 -1.818,1.54 -1.575,0 -2.094,-1.593 -2.094,-2.908 0,-1.281 0.501,-2.821 2.044,-2.821 1.141,0 1.799,0.726 1.955,1.818 h 2.372 c -0.312,-2.372 -1.956,-3.671 -4.311,-3.671 -2.7,0 -4.518,1.904 -4.518,4.587 0,2.788 1.663,4.848 4.57,4.848 2.113,0 4.05,-1.109 4.206,-3.393"
         style="fill:#1d1d1b;fill-opacity:1;fill-rule:nonzero;stroke:none;stroke-width:0.1"
         id="path2940" />
      <path
         d="m 436.386,263.002 c -0.226,1.247 -0.763,1.904 -1.957,1.904 -1.558,0 -2.008,-1.212 -2.042,-1.904 z m -3.999,-1.559 c 0.069,-1.557 0.83,-2.266 2.198,-2.266 0.988,0 1.783,0.605 1.939,1.16 h 2.164 c -0.691,-2.112 -2.164,-3.013 -4.189,-3.013 -2.822,0 -4.57,1.94 -4.57,4.708 0,2.684 1.853,4.727 4.57,4.727 3.046,0 4.518,-2.562 4.344,-5.316"
         style="fill:#1d1d1b;fill-opacity:1;fill-rule:nonzero;stroke:none;stroke-width:0.1"
         id="path2942" />
      <path
         d="m 440.366,257.567 h 2.45781 v 12.359 H 440.366 Z"
         style="fill:#1d1d1b;fill-opacity:1;fill-rule:nonzero;stroke:none;stroke-width:0.1"
         id="path2944" />
      <path
         d="m 449.107,259.177 c 1.681,0 2.183,1.437 2.183,2.855 0,1.438 -0.502,2.874 -2.183,2.874 -1.661,0 -2.162,-1.436 -2.162,-2.874 0,-1.418 0.501,-2.855 2.162,-2.855 m 0,7.582 c 2.822,0 4.64,-1.869 4.64,-4.727 0,-2.838 -1.818,-4.708 -4.64,-4.708 -2.803,0 -4.621,1.87 -4.621,4.708 0,2.858 1.818,4.727 4.621,4.727"
         style="fill:#1d1d1b;fill-opacity:1;fill-rule:nonzero;stroke:none;stroke-width:0.1"
         id="path2946" />
      <path
         d="m 455.339,266.517 h 2.337 v -1.246 h 0.052 c 0.624,1.002 1.696,1.488 2.735,1.488 2.614,0 3.272,-1.472 3.272,-3.688 v -5.504 h -2.459 v 5.054 c 0,1.472 -0.432,2.199 -1.575,2.199 -1.333,0 -1.904,-0.744 -1.904,-2.563 v -4.69 h -2.458"
         style="fill:#1d1d1b;fill-opacity:1;fill-rule:nonzero;stroke:none;stroke-width:0.1"
         id="path2948" />
      <path
         d="m 471.264,261.946 c -0.414,-0.364 -1.278,-0.381 -2.043,-0.52 -0.761,-0.156 -1.454,-0.415 -1.454,-1.315 0,-0.918 0.711,-1.143 1.506,-1.143 1.923,0 1.991,1.524 1.991,2.06 z m -5.676,1.817 c 0.138,2.303 2.198,2.995 4.205,2.995 1.784,0 3.93,-0.398 3.93,-2.544 v -4.657 c 0,-0.814 0.087,-1.628 0.312,-1.991 h -2.494 c -0.087,0.276 -0.156,0.571 -0.172,0.865 -0.78,-0.813 -1.923,-1.107 -3.014,-1.107 -1.695,0 -3.045,0.848 -3.045,2.684 0,2.024 1.522,2.509 3.045,2.717 1.508,0.225 2.909,0.173 2.909,1.177 0,1.057 -0.728,1.212 -1.593,1.212 -0.933,0 -1.541,-0.381 -1.626,-1.351"
         style="fill:#1d1d1b;fill-opacity:1;fill-rule:nonzero;stroke:none;stroke-width:0.1"
         id="path2950" />
    </g>
  </g>
</svg>
